<?xml version="1.0" encoding="utf-8"?>
<!-- (c) ammap.com | SVG map of Latin America - Low -->
<svg xmlns="http://www.w3.org/2000/svg" xmlns:amcharts="http://amcharts.com/ammap" xmlns:xlink="http://www.w3.org/1999/xlink" version="1.1">
	<defs>
		<style type="text/css">
			.land
			{
				fill: #CCCCCC;
				fill-opacity: 1;
				stroke:white;
				stroke-opacity: 1;
				stroke-width:0.5;
			}
		</style>

		<amcharts:ammap projection="mercator" leftLongitude="-117.150141" topLatitude="32.736396" rightLongitude="-34.713341" bottomLatitude="-55.621433"></amcharts:ammap>

		<!-- All areas are listed in the line below. You can use this list in your script. -->
		<!--{id:"AR"},{id:"BO"},{id:"BR"},{id:"BS"},{id:"BZ"},{id:"CL"},{id:"CO"},{id:"CR"},{id:"CU"},{id:"DO"},{id:"EC"},{id:"FK"},{id:"GF"},{id:"GT"},{id:"GY"},{id:"HN"},{id:"HT"},{id:"JM"},{id:"MX"},{id:"NI"},{id:"PA"},{id:"PE"},{id:"PR"},{id:"PY"},{id:"SR"},{id:"SV"},{id:"TT"},{id:"UY"},{id:"VE"}-->

	</defs>
	<g>
		<path id="AR" title="Argentina" class="land" d="M291.6,648.91l-2.66,0.25l-1.43,-1.73l-1.69,-0.13l-3,0l0,-10.57l1.08,2.15l1.4,3.53l3.65,2.87l3.93,1.21L291.6,648.91zM293.1,526.47l1.65,2.18l1.09,-2.43l3.2,0.13l0.45,0.64l5.16,4.95l2.29,0.46l3.43,2.26l2.89,1.2l0.4,1.36l-2.76,4.73l2.83,0.85l3.15,0.48l2.22,-0.5l2.54,-2.4l0.46,-2.74l1.39,-0.59l1.41,1.79l-0.06,2.49l-2.36,1.73l-1.88,1.28l-3.16,3.08l-3.74,4.37l-0.7,2.59l-0.75,3.37l0.03,3.3l-0.61,0.74l-0.22,2.17l-0.19,1.76l3.56,2.91l-0.38,2.37l1.75,1.51l-0.14,1.7l-2.69,4.52l-4.16,1.91l-5.62,0.75l-3.08,-0.36l0.59,2.15l-0.57,2.72l0.52,1.85l-1.68,1.3l-2.87,0.51l-2.7,-1.35l-1.08,0.97l0.39,3.71l1.89,1.14l1.54,-1.19l0.84,1.96l-2.58,1.18l-2.25,2.38l-0.41,3.91l-0.66,2.11l-2.65,0.01l-2.2,2.04l-0.8,3.01l2.76,2.98l2.68,0.83l-0.96,3.73l-3.31,2.38l-1.82,5.03l-2.56,1.72l-1.15,2.06l0.91,4.64l1.87,2.63l-1.18,-0.23l-2.6,-0.71l-6.77,-0.61l-1.16,-2.63l0.05,-3.33l-1.87,0.28l-0.99,-1.6l-0.24,-4.6l2.15,-1.88l0.89,-2.68l-0.33,-2.11l1.49,-3.52l1.02,-5.35l-0.3,-2.33l1.22,-0.75l-0.3,-1.48l-1.3,-0.78l0.92,-1.63l-1.27,-1.46l-0.65,-4.39l1.13,-0.77l-0.47,-4.54l0.66,-3.75l0.75,-3.22l1.68,-1.3l-0.85,-3.46l-0.01,-3.22l2.12,-2.26l-0.06,-2.87l1.6,-3.31l0.01,-3.09l-0.73,-0.61l-1.29,-5.69l1.73,-3.34l-0.26,-3.11l1,-2.9l1.84,-2.96l1.98,-1.95l-0.84,-1.23l0.59,-1l-0.09,-5.14l3.05,-1.51l0.96,-3.16l-0.34,-0.76l2.34,-2.72L293.1,526.47z"/>
		<path id="BO" title="Bolivia" class="land" d="M299.04,526.35L295.84,526.22L294.75,528.65L293.1,526.47L289.43,525.74L287.1,528.46L285.07,528.87L283.98,524.72L282.47,521.38L283.35,518.51L281.88,517.26L281.51,515.14L280.13,513.14L281.9,510L280.69,507.56L281.34,506.59L280.83,505.52L281.93,504.08L281.99,501.64L282.12,499.62L282.73,498.66L280.3,494.08L282.39,494.32L283.83,494.26L284.46,493.4L286.91,492.25L288.39,491.19L292.05,490.71L291.76,492.83L292.1,493.92L291.88,495.82L294.92,498.37L298.06,498.85L299.16,499.91L301.06,500.48L302.22,501.31L303.98,501.28L305.61,502.13L305.73,503.79L306.28,504.63L306.32,505.88L305.5,505.92L306.58,509.29L311.95,509.41L311.54,511.09L311.84,512.24L313.37,513.06L314.04,514.88L313.54,517.2L312.77,518.49L313.04,520.18L312.16,520.79L312.12,519.88L309.5,518.37L306.9,518.32L302.01,519.18L300.67,521.79L300.6,523.4L299.49,526.99z"/>
		<path id="BR" title="Brazil" class="land" d="M313.68,551.79L317.42,547.42L320.59,544.34L322.47,543.06L324.83,541.33L324.89,538.84L323.48,537.05L322.09,537.65L322.64,535.86L323.02,534.04L323.02,532.36L322.02,531.81L320.96,532.3L319.92,532.17L319.59,531L319.33,528.22L318.8,527.32L316.91,526.5L315.77,527.09L312.81,526.51L312.99,522.45L312.16,520.79L313.04,520.18L312.77,518.49L313.54,517.2L314.04,514.88L313.37,513.06L311.84,512.24L311.54,511.09L311.95,509.41L306.58,509.29L305.5,505.92L306.32,505.88L306.28,504.63L305.73,503.79L305.61,502.13L303.98,501.28L302.22,501.31L301.06,500.48L299.16,499.91L298.06,498.85L294.92,498.37L291.88,495.82L292.1,493.92L291.76,492.83L292.05,490.71L288.39,491.19L286.91,492.25L284.46,493.4L283.83,494.26L282.39,494.32L280.3,494.08L278.72,494.57L277.45,494.24L277.63,489.94L275.33,491.61L272.86,491.53L271.8,490.02L269.94,489.86L270.53,488.65L268.97,486.93L267.8,484.4L268.54,483.89L268.54,482.7L270.24,481.89L269.96,480.38L270.67,479.4L270.88,478.1L274.08,476.19L276.38,475.66L276.76,475.24L279.28,475.37L280.54,467.72L280.61,466.51L280.17,464.92L278.93,463.9L278.94,461.88L280.52,461.42L281.08,461.71L281.17,460.64L279.53,460.35L279.5,458.61L284.96,458.67L285.89,457.71L286.67,458.59L287.21,460.24L287.74,459.89L289.29,461.37L291.46,461.19L292.01,460.33L294.09,459.68L295.25,459.23L295.57,458.05L297.58,457.25L297.43,456.67L295.05,456.43L294.66,454.67L294.77,452.8L293.52,452.08L294.04,451.82L296.12,452.18L298.35,452.88L299.16,452.22L301.18,451.78L304.31,450.74L305.34,449.67L304.96,448.88L306.42,448.76L307.08,449.4L306.71,450.63L307.67,451.05L308.32,452.35L307.54,453.33L307.09,455.71L307.81,457.12L308.01,458.41L309.74,459.72L311.12,459.85L311.43,459.31L312.31,459.19L313.58,458.7L314.49,457.96L316.04,458.19L316.73,458.09L318.25,458.32L318.5,457.75L318.03,457.2L318.31,456.39L319.44,456.64L320.77,456.35L322.37,456.95L323.6,457.52L324.47,456.76L325.09,456.88L325.48,457.67L326.82,457.47L327.89,456.41L328.75,454.35L330.41,451.8L331.37,451.67L332.06,453.21L333.63,458.09L335.13,458.55L335.21,460.47L333.1,462.76L333.97,463.6L338.93,464.04L339.03,466.83L341.16,465.01L344.69,466.01L349.34,467.71L350.71,469.34L350.25,470.88L353.51,470.02L358.97,471.5L363.16,471.39L367.3,473.7L370.88,476.83L373.04,477.63L375.44,477.75L376.46,478.63L377.41,482.2L377.88,483.89L376.76,488.55L375.33,490.39L371.38,494.33L369.59,497.54L367.52,500.02L366.82,500.08L366.03,502.18L366.23,507.58L365.45,512.06L365.15,513.99L364.27,515.14L363.77,519.08L360.93,522.96L360.45,526.05L358.18,527.36L357.52,529.17L354.48,529.16L350.07,530.33L348.09,531.68L344.95,532.57L341.65,535.01L339.28,538.07L338.87,540.39L339.34,542.12L338.81,545.3L338.18,546.85L336.22,548.6L333.11,554.28L330.64,556.87L328.73,558.41L327.46,561.57L325.6,563.48L324.83,561.59L326.06,560.01L324.44,557.76L322.24,555.94L319.35,553.86L318.31,553.95L315.5,551.45z"/>
		<path id="BS" title="Bahamas" class="land" d="M257.86,395.2l-0.69,0.15l-0.71,-1.76l-1.05,-0.89l0.61,-1.95l0.84,0.12l0.98,2.55L257.86,395.2zM257.06,386.51l-3.06,0.5l-0.2,-1.15l1.32,-0.25l1.85,0.09L257.06,386.51zM259.36,386.48l-0.48,2.21l-0.52,-0.4l0.05,-1.62l-1.26,-1.23l-0.01,-0.36L259.36,386.48z"/>
		<path id="BZ" title="Belize" class="land" d="M225.31,412.96L225.29,412.53L225.63,412.39L226.14,412.74L227.14,410.97L227.67,410.93L227.68,411.36L228.21,411.37L228.17,412.17L227.71,413.44L227.96,413.89L227.67,414.94L227.84,415.21L227.52,416.69L226.97,417.46L226.46,417.55L225.91,418.55L225.07,418.55L225.29,415.27z"/>
		<path id="CL" title="Chile" class="land" d="M282.81,636.73l0,10.57l3,0l1.69,0.13l-0.93,1.98l-2.4,1.53l-1.38,-0.16l-1.66,-0.4l-2.04,-1.48l-2.94,-0.71l-3.53,-2.71l-2.86,-2.57l-3.86,-5.25l2.31,0.97l3.94,3.13l3.72,1.7l1.45,-2.17l0.91,-3.2l2.58,-1.91L282.81,636.73zM283.98,524.72l1.1,4.15l2.02,-0.41l0.34,0.76l-0.96,3.16l-3.05,1.51l0.09,5.14l-0.58,1l0.84,1.23l-1.98,1.95l-1.84,2.96l-1,2.9l0.27,3.12l-1.73,3.34l1.29,5.69l0.73,0.61l-0.01,3.09l-1.6,3.31l0.07,2.87l-2.12,2.26l0.01,3.22l0.85,3.46l-1.68,1.3l-0.75,3.22l-0.66,3.75l0.47,4.54l-1.13,0.77l0.66,4.39l1.27,1.46l-0.92,1.63l1.3,0.78l0.3,1.48l-1.22,0.75l0.3,2.33l-1.02,5.35l-1.49,3.52l0.33,2.11l-0.89,2.68l-2.15,1.88l0.25,4.6l0.99,1.6l1.87,-0.28l-0.05,3.33l1.16,2.63l6.78,0.61l2.6,0.72l-2.49,-0.03l-1.35,1.13l-2.53,1.67l-0.45,4.38l-1.19,0.11l-3.16,-1.53l-3.21,-3.25l0,0l-3.49,-2.63l-0.88,-2.87l0.79,-2.62l-1.41,-2.94l-0.36,-7.34l1.19,-4.03l2.96,-3.19l-4.26,-1.19l2.67,-3.57l0.96,-6.56l3.12,1.37l1.47,-7.97l-1.88,-1l-0.88,4.75l-1.77,-0.54l0.88,-5.42l0.96,-6.84l1.29,-2.48l-0.81,-3.49l-0.23,-3.98l1.18,-0.11l1.72,-5.6l1.94,-5.43l1.19,-4.97l-0.65,-4.91l0.84,-2.67l-0.34,-3.95l1.64,-3.87l0.51,-6.04l0.9,-6.37l0.88,-6.75l-0.2,-4.87l-0.58,-4.15l1.44,-0.75l0.75,-1.5l1.37,1.99l0.38,2.12l1.47,1.25l-0.88,2.87L283.98,524.72z"/>
		<path id="CO" title="Colombia" class="land" d="M263.92,463.81L262.72,463.15L261.34,462.23L260.54,462.67L258.17,462.28L257.48,461.09L256.96,461.13L254.15,459.54L253.77,458.67L254.82,458.47L254.7,457.07L255.35,456.06L256.75,455.87L257.93,454.12L259,452.66L257.96,451.99L258.49,450.37L257.86,447.81L258.46,447.08L258.02,444.71L256.89,443.21L257.24,441.85L258.15,442.05L258.68,441.21L258.02,439.56L258.37,439.14L259.81,439.23L261.92,437.26L263.07,436.96L263.1,436.03L263.62,433.64L265.23,432.32L266.99,432.27L267.21,431.68L269.41,431.91L271.62,430.48L272.71,429.84L274.07,428.47L275.06,428.64L275.79,429.39L275.25,430.35L273.45,430.83L272.74,432.25L271.65,433.06L270.84,434.12L270.49,436.13L269.72,437.79L271.16,437.98L271.52,439.27L272.14,439.89L272.36,441.02L272.03,442.06L272.13,442.65L272.82,442.89L273.49,443.86L277.09,443.59L278.72,443.95L280.7,446.36L281.83,446.06L283.85,446.21L285.45,445.9L286.44,446.38L285.93,447.88L285.31,448.82L285.09,450.83L285.65,452.68L286.45,453.51L286.55,454.14L285.12,455.53L286.14,456.14L286.89,457.12L287.74,459.89L287.21,460.24L286.67,458.59L285.89,457.71L284.96,458.67L279.5,458.61L279.53,460.35L281.17,460.64L281.08,461.71L280.52,461.42L278.94,461.88L278.93,463.9L280.17,464.92L280.61,466.51L280.54,467.72L279.28,475.37L277.88,473.88L277.04,473.82L278.85,470.98L276.7,469.67L275.02,469.91L274.01,469.43L272.46,470.17L270.38,469.82L268.72,466.9L267.43,466.18L266.53,464.86L264.67,463.54z"/>
		<path id="CR" title="Costa Rica" class="land" d="M242.63,440.4L241.11,439.77L240.54,439.18L240.86,438.69L240.76,438.07L239.98,437.39L238.88,436.84L237.91,436.48L237.73,435.65L236.99,435.15L237.17,435.97L236.61,436.64L235.97,435.86L235.07,435.58L234.69,435.01L234.71,434.15L235.08,433.25L234.29,432.85L234.93,432.31L235.35,431.94L237.2,432.69L237.84,432.32L238.73,432.56L239.2,433.14L240.02,433.33L240.7,432.73L241.41,434.27L242.49,435.41L243.81,436.62L242.72,436.87L242.74,438.01L243.32,438.42L242.9,438.76L243.01,439.27L242.78,439.84z"/>
		<path id="CU" title="Cuba" class="land" d="M244.59,396.94L247.01,397.16L249.21,397.19L251.84,398.22L252.96,399.33L255.58,398.99L256.57,399.7L258.95,401.56L260.69,402.91L261.61,402.87L263.29,403.48L263.08,404.32L265.15,404.44L267.27,405.66L266.94,406.35L265.07,406.73L263.19,406.88L261.25,406.64L257.24,406.93L259.12,405.27L257.98,404.5L256.17,404.3L255.2,403.44L254.53,401.74L252.95,401.85L250.34,401.05L249.49,400.42L245.84,399.95L244.86,399.36L245.91,398.61L243.16,398.46L241.15,400.02L239.99,400.06L239.58,400.8L238.2,401.13L237,400.84L238.48,399.91L239.08,398.83L240.35,398.15L241.78,397.56L243.91,397.27z"/>
		<path id="DO" title="Dominican Republic" class="land" d="M274.18,407.35L274.53,406.84L276.72,406.86L278.38,407.62L279.12,407.54L279.63,408.59L281.17,408.53L281.07,409.41L282.32,409.52L283.7,410.6L282.66,411.8L281.33,411.16L280.04,411.28L279.12,411.14L278.61,411.68L277.53,411.86L277.11,411.15L276.18,411.57L275.06,413.57L274.33,413.11L274.19,412.27L274.25,411.47L273.53,410.59L274.21,410.09L274.43,408.96z"/>
		<path id="EC" title="Ecuador" class="land" d="M250.1,472.87L251.59,470.79L250.98,469.57L249.91,470.87L248.23,469.65L248.8,468.86L248.33,466.33L249.31,465.91L249.83,464.18L250.89,462.38L250.69,461.25L252.23,460.65L254.15,459.54L256.96,461.13L257.48,461.09L258.17,462.28L260.54,462.67L261.34,462.23L262.72,463.15L263.92,463.81L264.31,465.92L263.44,467.74L260.38,470.65L257.01,471.75L255.29,474.18L254.76,476.06L253.17,477.21L252,475.8L250.86,475.5L249.71,475.72L249.63,474.7L250.43,474.04z"/>
		<path id="FK" title="Falkland Islands" class="land" d="M303.66,633.13L307.02,630.44L309.4,631.56L311.09,629.77L313.33,631.78L312.49,633.36L308.7,634.73L307.44,633.13L305.06,635.18z"/>
		<path id="GF" title="French Guiana" class="land" d="M327.89,456.41l-1.07,1.06l-1.34,0.2l-0.38,-0.78l-0.63,-0.12l-0.87,0.76l-1.23,-0.57l0.71,-1.19l0.24,-1.27l0.48,-1.19l-1.09,-1.65l-0.22,-1.91l1.46,-2.4l0.95,0.31l2.07,0.66l2.97,2.36l0.46,1.14l-1.66,2.55L327.89,456.41z"/>
		<path id="GT" title="Guatemala" class="land" d="M222.64,424.75L221.2,424.25L219.45,424.2L218.17,423.63L216.66,422.45L216.73,421.61L217.05,420.93L216.66,420.39L218.01,418.03L221.6,418.02L221.68,417.04L221.22,416.86L220.91,416.23L219.87,415.56L218.83,414.58L220.1,414.58L220.1,412.93L222.72,412.93L225.31,412.96L225.29,415.27L225.07,418.55L225.91,418.55L226.82,419.08L227.06,418.65L227.88,419.01L226.61,420.12L225.28,420.93L225.08,421.48L225.3,422.05L224.72,422.78L224.06,422.95L224.21,423.29L223.69,423.61L222.73,424.33z"/>
		<path id="GY" title="Guyana" class="land" d="M307.7,440L309.54,441.03L311.27,442.86L311.35,444.31L312.41,444.38L313.91,445.74L315.02,446.72L314.57,449.24L312.87,449.97L313.02,450.63L312.5,452.07L313.75,454.09L314.65,454.1L315.01,455.67L316.73,458.09L316.04,458.19L314.49,457.96L313.58,458.7L312.31,459.19L311.43,459.31L311.12,459.85L309.74,459.72L308.01,458.41L307.81,457.12L307.09,455.71L307.54,453.33L308.32,452.35L307.67,451.05L306.71,450.63L307.08,449.4L306.42,448.76L304.96,448.88L303.07,446.76L303.83,445.99L303.77,444.69L305.5,444.24L306.19,443.72L305.23,442.68L305.48,441.65z"/>
		<path id="HN" title="Honduras" class="land" d="M230.43,426.9L229.95,426.01L229.09,425.76L229.29,424.61L228.91,424.3L228.33,424.1L227.1,424.44L227,424.05L226.15,423.59L225.55,423.02L224.72,422.78L225.3,422.05L225.08,421.48L225.28,420.93L226.61,420.12L227.88,419.01L228.17,419.13L228.79,418.62L229.59,418.58L229.85,418.81L230.29,418.67L231.59,418.93L232.89,418.85L233.79,418.53L234.12,418.21L235.01,418.36L235.68,418.56L236.41,418.49L236.97,418.24L238.25,418.64L238.7,418.7L239.55,419.24L240.36,419.89L241.38,420.34L242.12,421.13L241.16,421.07L240.77,421.46L239.8,421.84L239.09,421.84L238.47,422.21L237.91,422.08L237.43,421.64L237.14,421.72L236.78,422.41L236.51,422.38L236.46,422.98L235.48,423.77L234.97,424.11L234.68,424.47L233.85,423.89L233.25,424.65L232.66,424.63L232,424.7L232.06,426.11L231.65,426.13L231.3,426.79z"/>
		<path id="HT" title="Haiti" class="land" d="M270.04,406.75L271.75,406.88L274.18,407.35L274.43,408.96L274.21,410.09L273.53,410.59L274.25,411.47L274.19,412.27L272.33,411.77L271.01,411.97L269.3,411.76L267.99,412.31L266.48,411.39L266.73,410.45L269.31,410.85L271.43,411.09L272.44,410.44L271.16,409.16L271.18,408.03L269.41,407.57z"/>
		<path id="JM" title="Jamaica" class="land" d="M257.76,410.96L259.65,411.22L261.14,411.93L261.6,412.73L259.63,412.78L258.78,413.27L257.21,412.8L255.61,411.73L255.94,411.06L257.12,410.86z"/>
		<path id="MX" title="Mexico" class="land" d="M202.89,388.72L201.8,391.43L201.31,393.64L201.1,397.72L200.83,399.19L201.32,400.83L202.19,402.3L202.75,404.61L204.61,406.83L205.26,408.51L206.36,409.97L209.34,410.75L210.5,411.97L212.96,411.15L215.09,410.86L217.19,410.33L218.96,409.82L220.74,408.62L221.41,406.9L221.64,404.4L222.13,403.53L224.02,402.74L226.99,402.05L229.47,402.15L231.17,401.9L231.85,402.53L231.75,403.97L230.24,405.74L229.58,407.55L230.09,408.06L229.67,409.34L228.97,411.64L228.26,410.88L227.67,410.93L227.14,410.97L226.14,412.74L225.63,412.39L225.29,412.53L225.31,412.96L222.72,412.93L220.1,412.93L220.1,414.58L218.83,414.58L219.87,415.56L220.91,416.23L221.22,416.86L221.68,417.04L221.6,418.02L218.01,418.03L216.66,420.39L217.05,420.93L216.73,421.61L216.66,422.45L213.49,419.34L212.04,418.4L209.75,417.64L208.19,417.85L205.93,418.94L204.52,419.23L202.54,418.47L200.44,417.91L197.82,416.58L195.72,416.18L192.54,414.82L190.2,413.42L189.49,412.64L187.92,412.47L185.05,411.54L183.88,410.2L180.87,408.53L179.47,406.66L178.8,405.21L179.73,404.92L179.45,404.07L180.09,403.3L180.1,402.26L179.16,400.92L178.9,399.72L177.96,398.2L175.49,395.18L172.67,392.79L171.31,390.88L168.9,389.62L168.39,388.86L168.82,386.94L167.39,386.21L165.73,384.69L165.03,382.5L163.52,382.24L161.9,380.58L160.58,379.03L160.46,378.03L158.95,375.61L157.96,373.13L158,371.88L155.97,370.59L155.04,370.73L153.44,369.83L152.99,371.16L153.45,372.72L153.72,375.15L154.69,376.48L156.77,378.69L157.23,379.44L157.66,379.66L158.03,380.76L158.52,380.71L159.09,382.75L159.94,383.55L160.54,384.66L162.3,386.26L163.23,389.15L164.06,390.5L164.84,391.94L164.99,393.56L166.35,393.66L167.47,395.05L168.49,396.41L168.42,396.95L167.24,398.06L166.74,398.05L166,396.2L164.17,394.47L162.15,392.99L160.71,392.21L160.8,389.96L160.38,388.28L159.04,387.32L157.12,385.93L156.75,386.33L156.04,385.51L154.31,384.76L152.66,382.93L152.86,382.69L154.01,382.87L155.06,381.69L155.16,380.26L153,377.99L151.35,377.1L150.32,375.1L149.28,372.97L147.98,370.36L146.84,367.4L150.03,367.15L153.59,366.79L153.33,367.43L157.56,369.04L163.96,371.35L169.54,371.33L171.76,371.32L171.76,369.97L176.62,369.97L177.64,371.14L179.08,372.17L180.74,373.6L181.67,375.29L182.37,377.05L183.82,378.02L186.15,378.98L187.91,376.45L190.21,376.39L192.18,377.67L193.59,379.85L194.56,381.71L196.21,383.51L196.83,385.7L197.62,387.17L199.8,388.13L201.79,388.81z"/>
		<path id="NI" title="Nicaragua" class="land" d="M234.93,432.31L233.96,431.41L232.65,430.26L232.03,429.3L230.85,428.41L229.44,427.12L229.76,426.68L230.22,427.11L230.43,426.9L231.3,426.79L231.65,426.13L232.06,426.11L232,424.7L232.66,424.63L233.25,424.65L233.85,423.89L234.68,424.47L234.97,424.11L235.48,423.77L236.46,422.98L236.51,422.38L236.78,422.41L237.14,421.72L237.43,421.64L237.91,422.08L238.47,422.21L239.09,421.84L239.8,421.84L240.77,421.46L241.16,421.07L242.12,421.13L241.88,421.41L241.74,422.05L242.02,423.1L241.38,424.08L241.08,425.24L240.99,426.5L241.14,427.23L241.21,428.52L240.78,428.8L240.52,430.02L240.71,430.77L240.14,431.5L240.27,432.26L240.7,432.73L240.02,433.33L239.2,433.14L238.73,432.56L237.84,432.32L237.2,432.69L235.35,431.94z"/>
		<path id="PA" title="Panama" class="land" d="M256.89,443.21L255.95,442.4L255.35,440.88L256.04,440.13L255.33,439.94L254.81,439.01L253.41,438.23L252.19,438.41L251.62,439.39L250.48,440.09L249.87,440.19L249.6,440.78L250.94,442.3L250.17,442.66L249.76,443.08L248.46,443.22L247.97,441.54L247.61,442.02L246.68,441.86L246.12,440.72L244.97,440.54L244.24,440.21L243.04,440.21L242.95,440.82L242.63,440.4L242.78,439.84L243.01,439.27L242.9,438.76L243.32,438.42L242.74,438.01L242.72,436.87L243.81,436.62L244.81,437.63L244.76,438.23L245.87,438.35L246.14,438.12L246.91,438.82L248.29,438.61L249.48,437.9L251.18,437.33L252.14,436.49L253.69,436.65L253.59,436.93L255.15,437.03L256.4,437.52L257.31,438.36L258.37,439.14L258.02,439.56L258.68,441.21L258.15,442.05L257.24,441.85z"/>
		<path id="PE" title="Peru" class="land" d="M280.13,513.14L279.38,514.65L277.94,515.39L275.13,513.71L274.88,512.51L269.33,509.59L264.3,506.42L262.13,504.64L260.97,502.27L261.43,501.44L259.06,497.69L256.29,492.45L253.65,486.83L252.5,485.55L251.62,483.48L249.44,481.65L247.44,480.51L248.35,479.26L246.99,476.59L247.86,474.64L250.1,472.87L250.43,474.04L249.63,474.7L249.71,475.72L250.86,475.5L252,475.8L253.17,477.21L254.76,476.06L255.29,474.18L257.01,471.75L260.38,470.65L263.44,467.74L264.31,465.92L263.92,463.81L264.67,463.54L266.53,464.86L267.43,466.18L268.72,466.9L270.38,469.82L272.46,470.17L274.01,469.43L275.02,469.91L276.7,469.67L278.85,470.98L277.04,473.82L277.88,473.88L279.28,475.37L276.76,475.24L276.38,475.66L274.08,476.19L270.88,478.1L270.67,479.4L269.96,480.38L270.24,481.89L268.54,482.7L268.54,483.89L267.8,484.4L268.97,486.93L270.53,488.65L269.94,489.86L271.8,490.02L272.86,491.53L275.33,491.61L277.63,489.94L277.45,494.24L278.72,494.57L280.3,494.08L282.73,498.66L282.12,499.62L281.99,501.64L281.93,504.08L280.83,505.52L281.34,506.59L280.69,507.56L281.9,510z"/>
		<path id="PR" title="Puerto Rico" class="land" d="M289.41,410.89L290.84,411.15L291.35,411.73L290.63,412.47L288.52,412.45L286.88,412.55L286.71,411.3L287.11,410.87z"/>
		<path id="PY" title="Paraguay" class="land" d="M299.49,526.99L300.6,523.4L300.67,521.79L302.01,519.18L306.9,518.32L309.5,518.37L312.12,519.88L312.16,520.79L312.99,522.45L312.81,526.51L315.77,527.09L316.91,526.5L318.8,527.32L319.33,528.22L319.59,531L319.92,532.17L320.96,532.3L322.02,531.81L323.02,532.36L323.02,534.04L322.64,535.86L322.09,537.65L321.63,540.39L319.09,542.79L316.87,543.29L313.72,542.81L310.9,541.96L313.66,537.23L313.25,535.86L310.37,534.66L306.94,532.4L304.65,531.93z"/>
		<path id="SR" title="Suriname" class="land" d="M315.02,446.72L318.38,447.28L318.68,446.78L320.95,446.57L323.96,447.33L322.5,449.73L322.73,451.64L323.83,453.3L323.33,454.5L323.09,455.77L322.37,456.95L320.77,456.35L319.44,456.64L318.31,456.39L318.03,457.2L318.5,457.75L318.25,458.32L316.73,458.09L315.01,455.67L314.65,454.1L313.75,454.09L312.5,452.07L313.02,450.63L312.87,449.97L314.57,449.24z"/>
		<path id="SV" title="El Salvador" class="land" d="M229.09,425.76L228.78,426.43L227.16,426.39L226.15,426.12L224.99,425.55L223.43,425.37L222.64,424.75L222.73,424.33L223.69,423.61L224.21,423.29L224.06,422.95L224.72,422.78L225.55,423.02L226.15,423.59L227,424.05L227.1,424.44L228.33,424.1L228.91,424.3L229.29,424.61z"/>
		<path id="TT" title="Trinidad and Tobago" class="land" d="M302.31,433.24L303.92,432.87L304.51,432.97L304.4,435.08L302.06,435.39L301.55,435.14L302.37,434.36z"/>
		<path id="UY" title="Uruguay" class="land" d="M313.68,551.79L315.5,551.45L318.31,553.95L319.35,553.86L322.24,555.94L324.44,557.76L326.06,560.01L324.83,561.59L325.6,563.48L324.39,565.6L321.22,567.48L319.15,566.8L317.63,567.17L315.04,565.71L313.14,565.82L311.43,563.95L311.65,561.79L312.26,561.05L312.23,557.75L312.98,554.38z"/>
		<path id="VE" title="Venezuela" class="land" d="M275.25,430.35L275.17,431.02L273.52,431.35L274.44,432.64L274.4,434.13L273.17,435.77L274.23,438.01L275.44,437.83L276.07,435.79L275.2,434.79L275.06,432.65L278.55,431.49L278.16,430.15L279.14,429.25L280.15,431.25L282.12,431.3L283.94,432.88L284.05,433.82L286.56,433.85L289.56,433.55L291.17,434.82L293.31,435.17L294.88,434.29L294.92,433.57L298.39,433.4L301.75,433.36L299.37,434.2L300.33,435.54L302.57,435.75L304.69,437.14L305.14,439.4L306.6,439.33L307.7,440L305.48,441.65L305.23,442.68L306.19,443.72L305.5,444.24L303.77,444.69L303.83,445.99L303.07,446.76L304.96,448.88L305.34,449.67L304.31,450.74L301.18,451.78L299.16,452.22L298.35,452.88L296.12,452.18L294.04,451.82L293.52,452.08L294.77,452.8L294.66,454.67L295.05,456.43L297.43,456.67L297.58,457.25L295.57,458.05L295.25,459.23L294.09,459.68L292.01,460.33L291.46,461.19L289.29,461.37L287.74,459.89L286.89,457.12L286.14,456.14L285.12,455.53L286.55,454.14L286.45,453.51L285.65,452.68L285.09,450.83L285.31,448.82L285.93,447.88L286.44,446.38L285.45,445.9L283.85,446.21L281.83,446.06L280.7,446.36L278.72,443.95L277.09,443.59L273.49,443.86L272.82,442.89L272.13,442.65L272.03,442.06L272.36,441.02L272.14,439.89L271.52,439.27L271.16,437.98L269.72,437.79L270.49,436.13L270.84,434.12L271.65,433.06L272.74,432.25L273.45,430.83z"/>
	</g>
</svg>