<?xml version="1.0" encoding="utf-8"?>
<!-- (c) ammap.com | SVG map of Asia - low -->
<svg xmlns="http://www.w3.org/2000/svg" xmlns:amcharts="http://amcharts.com/ammap" xmlns:xlink="http://www.w3.org/1999/xlink" version="1.1">
	<defs>
		<style type="text/css">
			.land
			{
				fill: #CCCCCC;
				fill-opacity: 1;
				stroke:white;
				stroke-opacity: 1;
				stroke-width:0.5;
			}
		</style>

		<amcharts:ammap projection="mercator" leftLongitude="34.243122" topLatitude="81.253768" rightLongitude="190.116828" bottomLatitude="-10.243122"></amcharts:ammap>

		<!-- All areas are listed in the line below. You can use this list in your script. -->
		<!--{id:"AE"},{id:"AF"},{id:"BD"},{id:"BN"},{id:"BT"},{id:"CN"},{id:"ID"},{id:"IL"},{id:"IN"},{id:"IQ"},{id:"IR"},{id:"JO"},{id:"JP"},{id:"KG"},{id:"KH"},{id:"KP"},{id:"KR"},{id:"KW"},{id:"KZ"},{id:"LA"},{id:"LB"},{id:"LK"},{id:"MM"},{id:"MN"},{id:"MY"},{id:"NP"},{id:"OM"},{id:"PH"},{id:"PK"},{id:"PS"},{id:"QA"},{id:"RU-asia"},{id:"SA"},{id:"SY"},{id:"TH"},{id:"TJ"},{id:"TL"},{id:"TM"},{id:"TW"},{id:"UZ"},{id:"VN"},{id:"YE"}-->

	</defs>
	<g>
		<path id="AE" title="United Arab Emirates" class="land" d="M619.87,393.72L620.37,393.57L620.48,394.41L622.67,393.93L624.99,394.01L626.68,394.1L628.6,392.03L630.7,390.05L632.47,388.15L633,389.2L633.38,391.64L631.95,391.65L631.72,393.65L632.22,394.07L630.95,394.67L630.94,395.92L630.12,397.18L630.05,398.39L629.48,399.03L621.06,397.51L619.98,394.43z"/>
		<path id="AF" title="Afghanistan" class="land" d="M646.88,356.9L649.74,358.2L651.85,357.74L652.44,356.19L654.65,355.67L656.23,354.62L656.79,351.83L659.15,351.15L659.59,349.9L660.92,350.84L661.76,350.95L663.32,350.98L665.44,351.72L666.29,352.14L668.32,351.02L669.27,351.69L670.17,350.09L671.85,350.16L672.28,349.64L672.58,348.21L673.79,346.98L675.3,347.78L675,348.87L675.85,349.04L675.58,351.99L676.69,353.14L677.67,352.4L678.92,352.06L680.66,350.49L682.59,350.75L685.49,350.75L685.99,351.76L684.35,352.15L682.93,352.8L679.71,353.2L676.7,353.93L675.06,355.44L675.72,356.9L676.05,358.6L674.65,360.03L674.77,361.33L674,362.55L671.33,362.44L672.43,364.66L670.65,365.51L669.46,367.51L669.61,369.49L668.51,370.41L667.48,370.11L665.33,370.54L665.03,371.45L662.94,371.45L661.38,373.29L661.28,376.04L657.63,377.37L655.68,377.09L655.11,377.79L653.44,377.39L650.63,377.87L645.94,376.23L648.48,373.3L648.25,371.2L646.13,370.65L645.91,368.56L644.99,365.92L646.19,364.09L644.97,363.6L645.74,361.15z"/>
		<path id="BD" title="Bangladesh" class="land" d="M735.09,400.41L735.04,402.56L734.06,402.1L734.24,404.51L733.44,402.95L733.28,401.43L732.74,399.98L731.57,398.22L728.99,398.1L729.25,399.35L728.37,401.02L727.17,400.41L726.76,400.96L725.97,400.63L724.89,400.36L724.45,397.88L723.48,395.6L723.95,393.76L722.23,392.94L722.85,391.82L724.6,390.67L722.58,389.04L723.57,386.93L725.79,388.27L727.13,388.43L727.38,390.58L730.04,391L732.65,390.95L734.26,391.48L732.97,394.07L731.71,394.25L730.85,395.98L732.38,397.56L732.84,395.62L733.62,395.61z"/>
		<path id="BN" title="Brunei Darussalam" class="land" d="M795.46,450.77L796.57,449.72L798.96,448.19L798.83,449.57L798.67,451.35L797.33,451.26L796.74,452.21z"/>
		<path id="BT" title="Bhutan" class="land" d="M732.36,382.78L733.5,383.78L733.3,385.71L731.01,385.8L728.65,385.59L726.88,386.08L724.33,384.89L724.28,384.26L726.13,381.92L727.64,381.12L729.65,381.85L731.13,381.93z"/>
		<path id="CN" title="China" class="land" d="M785.88,406.27l0.63,1.13l-1.23,1.3l-0.65,1.7l-2.42,1.41l-2.3,-0.91l-0.08,-2.53l1.38,-1.34l3.06,-0.83L785.88,406.27zM849.21,309.6l-2.43,1.65l-4.26,0l-1.13,-3.95l-3.32,-3.03l-4.88,-1.38l-1.04,-4.28l-0.98,-2.73l-1.05,-1.94l-1.73,-4.61l-2.46,-1.71l-4.2,-1.39l-3.72,0.13l-3.48,0.84l-2.32,2.31l1.54,1.1l0.04,2.52l-1.56,1.45l-2.53,4.73l0.03,1.93l-3.95,2.74l-3.37,-1.63l-1.37,3.25l-1.98,4.23l0.72,1.71l1.59,-0.53l2.77,0.65l2.16,-1.54l2.25,1.33l2.54,2.89l-0.31,1.45l-2.21,-0.46l-4.07,0.54l-1.97,1.16l-2.05,2.66l-4.28,1.55l-2.79,2.1l-2.88,-0.8l-1.58,-0.36l-1.47,2.54l0.9,1.5l0.45,1.28l-1.96,1.3l-2.01,2.05l-3.28,1.34l-4.2,0.14l-4.53,1.31l-3.26,2.01l-1.24,-1.16l-3.39,0l-4.15,-2.29l-2.77,-0.57l-3.73,0.53l-5.79,-0.85l-3.09,0.09l-1.65,-2.27l-1.28,-3.57l-1.73,-0.43l-3.39,-2.45l-3.78,-0.55l-3.33,-0.68l-1.01,-1.73l1.08,-4.73l-1.93,-3.32l-4,-1.57l-2.36,-2.23l-0.74,-2.97l-1.1,0.35l-2.13,2.83l-2.33,0.39l-0.13,4.19l-1.56,1.86l-5.56,-1.35l-2.02,7.26l-1.44,0.89l-5.55,1.58l2.52,6.75l-1.92,1l0.22,2.17l-0.39,0.85l-4.42,2.03l-1,1.48l-3.6,0.44l-1.06,2.35l-2.97,-0.49l-1.94,0.72l-2.68,1.73l0.39,0.85l-0.8,0.83l0.71,3.32l0.92,-0.36l1.7,0.81l-0.1,1.38l0.42,2.01l0.5,1.01l2.07,1.63l0.83,2.66l4.42,1.33l0.14,-0.04l3.88,-1.37l2.88,1.37l-0.91,2.76l-1.6,2.23l-1.24,0.1h-0.05l-0.18,1.74l1.12,1.71l-0.09,1.69l-2.01,-0.44l0.79,3.63l2.75,2.07l3.9,2.26l1.16,-0.77l2.25,0.99l2.83,2.09l1.58,0.46l0.94,1.53l2.18,0.63l2.28,1.39l3.17,0.73l3.27,0.31l1.71,-0.66l0.24,2.48l1.85,-2.34l1.51,-0.8l2,0.73l1.48,0.08l1.23,0.85l2.26,-0.39l2.55,-2.36l3.23,-2.03l2.35,0.78l2,-1.35l1.31,1.99l-0.95,1.33l3.02,0.47l1.64,-0.24l0.94,1.86l1.22,0.75l0.08,2.4l-0.11,2.57l-2.66,2.58l-0.34,3.63l2.96,-0.51l0.67,2.8l1.78,0.59l-0.82,2.51l2.08,1.13l1.21,0.55l2.06,-0.87l0.08,1.24l0.25,0.7l1.5,0.08l-0.42,-3.43l1.45,-0.44l1.5,-0.74l2.24,0.02l2.73,-0.35l2.39,-1.62l1.35,1.14l2.56,0.55l-0.44,1.74l1.33,1.22l2.82,0.78l1.33,-0.49l3.76,0.96l-0.66,1.16l0.74,2.16l1.55,-0.17l0.96,-3.15l2.97,-0.46l3.92,-1.5l1.59,-1.5l0.97,0.98l1.71,-1.34l3.16,-0.35l3.9,-2.55l3.86,-2.82l2.6,-3.68l2.27,-4.09l2.05,-3.41l1.57,-0.28l0.71,-2.52l0.43,-2.61l-1.65,-1l-0.67,-1.73l1.76,-0.89l0.05,-2.43l-1.9,-2.53l-1.71,-3.05l-1.1,-3.31l-3.02,-1.86l1.44,-2.39l2.73,-1.73l1.31,-1.87l3.97,-0.97l-0.46,-1.84l-1.81,-0.09l-2.49,-1.37l-3.14,2.51l-2.22,-1.02l-0.09,-1.58l-2.29,-0.58l-1.48,-2.41l1.43,-1.68l2.75,-0.17l1.73,-2.34l3.17,-2.54l2.44,-1.3l1.48,1.93l-2.22,2.45l0.59,1.41l-1.49,1.67l3.02,-0.98l2.06,-1.69l3.92,-1.06l2.28,-2.35l3.09,-1.98l1.93,-2.64l1.33,1.17l2.42,0.14l-0.44,-1.97l4.33,-1.62l1.11,-2.13l1.81,2.24l-0.02,-1.93l1.43,-0.1l0.4,-4.55l-0.74,-3.36l2.41,-1.4l3.4,0.7l1.89,-3.89l0.96,-4.46l1.09,-1.51l1.47,-3.76L849.21,309.6z"/>
		<path id="ID" title="Indonesia" class="land" d="M813.72,492.06l-1.18,0.05l-3.72,-1.98l2.61,-0.56l1.47,0.86l0.98,0.86L813.72,492.06zM824.15,491.78l-2.4,0.62l-0.34,-0.34l0.25,-0.96l1.21,-1.72l2.77,-1.12l0.28,0.56l0.05,0.86L824.15,491.78zM805.83,486.01l1.01,0.75l1.73,-0.23l0.7,1.2l-3.24,0.57l-1.94,0.38l-1.51,-0.02l0.96,-1.62l1.54,-0.02L805.83,486.01zM819.86,486l-0.41,1.56l-4.21,0.8l-3.73,-0.35l-0.01,-1.03l2.23,-0.59l1.76,0.84l1.87,-0.21L819.86,486zM779.82,482.31l5.37,0.28l0.62,-1.16l5.2,1.35l1.02,1.82l4.21,0.51l3.44,1.67l-3.2,1.07l-3.08,-1.13l-2.54,0.08l-2.91,-0.21l-2.62,-0.51l-3.25,-1.07l-2.06,-0.28l-1.17,0.35l-5.11,-1.16l-0.49,-1.21l-2.57,-0.21l1.92,-2.68l3.4,0.17l2.26,1.09l1.16,0.21L779.82,482.31zM853,480.73l-1.44,1.91l-0.27,-2.11l0.5,-1.01l0.59,-0.95l0.64,0.82L853,480.73zM832.04,473.02l-1.05,0.93l-1.94,-0.51l-0.55,-1.2l2.84,-0.13L832.04,473.02zM841.08,472.01l1.02,2.13l-2.37,-1.15l-2.34,-0.23l-1.58,0.18l-1.94,-0.1l0.67,-1.53l3.46,-0.12L841.08,472.01zM851.37,466.59l0.78,4.51l2.9,1.67l2.34,-2.96l3.22,-1.68l2.49,0l2.4,0.97l2.08,1l3.01,0.53l0.05,9.1l0.05,9.16l-2.5,-2.31l-2.85,-0.57l-0.69,0.8l-3.55,0.09l1.19,-2.29l1.77,-0.78l-0.73,-3.05l-1.35,-2.35l-5.44,-2.37l-2.31,-0.23l-4.21,-2.58l-0.83,1.36l-1.08,0.25l-0.64,-1.02l-0.01,-1.21l-2.14,-1.37l3.02,-1l2,0.05l-0.24,-0.74l-4.1,-0.01l-1.11,-1.66l-2.5,-0.51l-1.19,-1.38l3.78,-0.67l1.44,-0.91l4.5,1.14L851.37,466.59zM826.41,459.43l-2.25,2.76l-2.11,0.54l-2.7,-0.54l-4.67,0.14l-2.45,0.4l-0.4,2.11l2.51,2.48l1.51,-1.26l5.23,-0.95l-0.23,1.28l-1.22,-0.4l-1.22,1.63l-2.47,1.08l2.65,3.57l-0.51,0.96l2.52,3.22l-0.02,1.84l-1.5,0.82l-1.1,-0.98l1.36,-2.29l-2.75,1.08l-0.7,-0.77l0.36,-1.08l-2.02,-1.64l0.21,-2.72l-1.87,0.85l0.24,3.25l0.11,4l-1.78,0.41l-1.2,-0.82l0.8,-2.57l-0.43,-2.69l-1.18,-0.02l-0.87,-1.91l1.16,-1.83l0.4,-2.21l1.41,-4.2l0.59,-1.15l2.38,-2.07l2.19,0.82l3.54,0.39l3.22,-0.12l2.77,-2.02L826.41,459.43zM836.08,460.23l-0.15,2.43l-1.45,-0.27l-0.43,1.69l1.16,1.47l-0.79,0.33l-1.13,-1.76l-0.83,-3.56l0.56,-2.23l0.93,-1.01l0.2,1.52l1.66,0.24L836.08,460.23zM805.76,458.29l3.14,2.58l-3.32,0.33l-0.94,1.9l0.12,2.52l-2.7,1.91L802,470.3l-1.08,4.27l-0.41,-0.99l-3.19,1.26l-1.11,-1.71l-2,-0.16l-1.4,-0.89l-3.33,1l-1.02,-1.35l-1.84,0.15l-2.31,-0.32l-0.43,-3.74l-1.4,-0.77l-1.35,-2.38l-0.39,-2.44l0.33,-2.58l1.67,-1.85l0.47,1.86l1.92,1.57l1.81,-0.57l1.79,0.2l1.63,-1.41l1.34,-0.24l2.65,0.78l2.29,-0.59l1.44,-3.88l1.08,-0.97l0.97,-3.17l3.22,0l2.43,0.47l-1.59,2.52l2.06,2.64L805.76,458.29zM771.95,479.71l-3.1,0.06l-2.36,-2.34l-3.6,-2.28l-1.2,-1.69l-2.12,-2.27l-1.39,-2.09l-2.13,-3.9l-2.46,-2.32l-0.82,-2.39l-1.03,-2.17l-2.53,-1.75l-1.47,-2.39l-2.11,-1.56l-2.92,-3.08l-0.25,-1.42l1.81,0.11l4.34,0.54l2.48,2.73l2.17,1.89l1.55,1.16l2.66,3l2.85,0.04l2.36,1.91l1.62,2.33l2.13,1.27l-1.12,2.27l1.61,0.97l1.01,0.07l0.48,1.94l0.98,1.56l2.06,0.25l1.36,1.76l-0.7,3.47L771.95,479.71z"/>
		<path id="IL" title="Israel" class="land" d="M575.41,366.82L574.92,367.87L573.9,367.41L573.32,369.61L574.02,369.97L573.31,370.43L573.18,371.29L574.5,370.84L574.57,372.11L573.17,377.28L571.33,371.73L572.14,370.65L571.95,370.46L572.69,368.93L573.26,366.43L573.66,365.59L573.74,365.56L574.68,365.56L574.94,364.98L575.69,364.93L575.73,366.3L575.35,366.8z"/>
		<path id="IN" title="India" class="land" d="M748.36,382.43L748.14,381.23L745.12,380.76L746.07,379.42L744.75,377.44L742.75,378.78L740.4,378L737.17,380.03L734.62,382.38L732.36,382.78L733.5,383.78L733.3,385.71L731.01,385.8L728.65,385.59L726.88,386.08L724.33,384.89L724.28,384.26L724.04,381.78L722.33,382.45L722.11,383.8L722.48,385.79L722.16,387.03L719.83,387.08L716.45,386.35L714.29,386.06L712.67,384.47L708.83,384.06L705.17,382.29L702.53,380.74L699.81,379.54L700.9,376.55L702.68,375.09L698.78,372.82L696.03,370.76L695.24,367.13L697.25,367.57L697.34,365.88L696.23,364.17L696.41,362.43L696.46,362.43L697.7,362.33L699.3,360.1L700.21,357.34L697.33,355.97L693.45,357.34L693.31,357.38L693.5,357.44L688.89,356.05L688.06,353.39L685.99,351.76L684.35,352.15L682.93,352.8L681.65,352.96L681.53,353.07L678.45,355.41L678.81,356.56L679.77,356.55L682.81,359.16L680.94,360.84L681.52,365.64L683.9,366.63L683.99,366.6L684,366.64L686.27,368.27L683.88,370.18L683.92,372.51L681.2,375.75L679.44,379.01L676.51,382.33L673.25,382.09L670.16,385.39L672,386.79L672.32,389.18L673.89,390.74L674.45,393.38L668.28,393.37L666.41,395.41L669.7,397.99L670.53,399.17L669.18,400.26L672.84,403.89L674.82,404.25L678.9,402.46L679.44,405.26L679.43,408.84L680.27,412.61L681.43,418.25L683.98,422.22L684.47,424.02L685.16,427.6L686.65,430.34L687.63,431.68L688.71,434.54L690.01,438.5L692.66,441.13L693.79,440.32L694.73,438.4L697.29,437.6L696.44,436.67L697.71,434.52L699.16,434.38L699.18,429.55L700.36,426.84L700.21,424.47L699.63,420.72L700.47,418.52L701.78,418.36L704.31,417.33L705.71,416.61L705.71,415.27L708.5,413.36L710.61,411.51L713.75,408.05L717.78,406.05L719.28,404.29L719.12,402.04L722.58,401.42L724.48,401.46L724.89,400.36L724.45,397.88L723.48,395.6L723.95,393.76L722.23,392.94L722.85,391.82L724.6,390.67L722.58,389.04L723.57,386.93L725.79,388.27L727.13,388.43L727.38,390.58L730.04,391L732.65,390.95L734.26,391.48L732.97,394.07L731.71,394.25L730.85,395.98L732.38,397.56L732.84,395.62L733.62,395.61L735.09,400.41L736.48,399.69L736.18,398.41L736.81,397.38L736.92,394.23L739.11,394.93L740.36,392.41L740.51,390.91L742.05,388.31L741.97,386.53L745.6,384.37L747.6,384.94L747.37,383.01z"/>
		<path id="IQ" title="Iraq" class="land" d="M602.61,355.77L604.44,356.81L604.66,358.81L603.24,359.98L602.59,362.62L604.54,365.8L607.97,367.62L609.42,370.12L608.96,372.49L609.85,372.49L609.88,374.22L611.43,375.91L609.77,375.76L607.88,375.49L605.82,378.57L600.61,378.31L592.71,371.82L588.53,369.53L585.15,368.64L584.02,364.6L590.23,361.1L591.29,356.98L591.02,354.46L592.56,353.6L594,351.42L595.2,350.87L598.46,351.33L599.45,352.22L600.79,351.63z"/>
		<path id="IR" title="Iran" class="land" d="M626.44,351.53L628.91,350.85L630.9,348.83L632.77,348.93L634,348.27L636,348.6L639.1,350.39L641.34,350.78L644.54,353.87L646.63,353.99L646.88,356.9L645.74,361.15L644.97,363.6L646.19,364.09L644.99,365.92L645.91,368.56L646.13,370.65L648.25,371.2L648.48,373.3L645.94,376.23L647.32,377.91L648.45,379.84L651.13,381.24L651.21,384.01L652.55,384.52L652.78,385.96L648.74,387.57L647.68,391.17L642.41,390.24L639.35,389.53L636.19,389.12L634.99,385.31L633.65,384.75L631.49,385.31L628.67,386.82L625.24,385.79L622.41,383.38L619.71,382.48L617.84,379.47L615.77,375.2L614.26,375.72L612.48,374.65L611.43,375.91L609.88,374.22L609.85,372.49L608.96,372.49L609.42,370.12L607.97,367.62L604.54,365.8L602.59,362.62L603.24,359.98L604.66,358.81L604.44,356.81L602.61,355.77L600.79,351.63L599.26,348.8L599.8,347.71L598.93,343.59L600.85,342.56L601.29,343.93L602.71,345.59L604.63,346.06L605.65,345.96L608.96,343.3L610.01,343.03L610.83,344.1L609.87,345.88L611.62,347.74L612.31,347.57L613.2,350.18L615.86,350.91L617.81,352.67L621.79,353.27L626.17,352.35z"/>
		<path id="JO" title="Jordan" class="land" d="M574.92,367.87L575.41,366.82L578.53,368.14L584.02,364.6L585.15,368.64L584.62,369.13L579,370.78L581.8,374.04L580.87,374.58L580.41,375.67L578.27,376.11L577.6,377.27L576.38,378.25L573.26,377.74L573.17,377.28L574.57,372.11L574.5,370.84L574.92,369.88z"/>
		<path id="JP" title="Japan" class="land" d="M852.76,362.01l0.36,1.15l-1.58,2.03l-1.15,-1.07l-1.44,0.78l-0.74,1.95l-1.83,-0.95l0.02,-1.58l1.55,-2l1.59,0.39l1.15,-1.42L852.76,362.01zM870.53,351.73l-1.06,2.78l0.49,1.73l-1.46,2.42l-3.58,1.6l-4.93,0.21l-4,3.84l-1.88,-1.29L854,360.5l-4.88,0.75l-3.32,1.59l-3.28,0.06l2.84,2.46l-1.87,5.61l-1.81,1.37l-1.36,-1.27l0.69,-2.96l-1.77,-0.96l-1.14,-2.28l2.65,-1.03l1.47,-2.11l2.82,-1.75l2.06,-2.33l5.58,-1.02l3,0.7l2.93,-6.17l1.87,1.67l4.11,-3.51l1.59,-1.38l1.76,-4.38l-0.48,-4.1l1.18,-2.33l2.98,-0.68l1.53,5.11l-0.08,2.94l-2.59,3.6L870.53,351.73zM878.76,325.8l1.97,0.83l1.98,-1.65l0.62,4.35l-4.16,1.05l-2.46,3.76l-4.41,-2.58l-1.53,4.12l-3.12,0.06l-0.39,-3.74l1.39,-2.94l3,-0.21l0.82,-5.38l0.83,-3.09l3.29,4.12L878.76,325.8z"/>
		<path id="KG" title="Kyrgyzstan" class="land" d="M674.22,333.11L674.85,331.45L676.69,330.91L681.31,332.22L681.74,329.98L683.33,329.18L687.33,330.79L688.35,330.37L693,330.47L697.16,330.87L698.56,332.24L700.29,332.79L699.9,333.65L695.48,335.68L694.48,337.16L690.88,337.6L689.82,339.95L686.85,339.46L684.92,340.18L682.24,341.9L682.63,342.75L681.83,343.58L676.53,344.13L673.06,342.96L670.02,343.24L670.29,341.14L673.34,341.75L674.37,340.62L676.5,340.98L680.09,338.34L676.77,336.38L674.77,337.31L672.7,335.91L675.05,333.48z"/>
		<path id="KH" title="Cambodia" class="land" d="M765.44,433.6L764.3,432.12L762.89,429.18L762.22,425.73L764.02,423.35L767.64,422.8L770.27,423.21L772.58,424.34L773.85,422.35L776.34,423.41L776.99,425.33L776.64,428.75L771.93,430.94L773.16,432.67L770.22,432.87L767.79,434.01z"/>
		<path id="KP" title="North Korea" class="land" d="M841.55,332.62L841.94,333.29L840.88,333.06L839.66,334.33L838.82,335.61L838.93,338.28L837.48,339.09L836.98,339.74L835.92,340.82L834.05,341.42L832.84,342.4L832.75,343.97L832.42,344.37L833.54,344.95L835.13,346.53L834.72,347.39L833.53,347.62L831.55,347.79L830.46,349.39L829.2,349.27L829.03,349.59L827.67,348.92L827.33,349.58L826.51,349.87L826.41,349.21L825.68,348.89L824.93,348.32L825.7,346.75L826.36,346.33L826.11,345.68L826.82,343.74L826.63,343.15L825,342.75L823.68,341.78L825.96,339.43L829.05,337.45L830.98,334.8L832.31,335.97L834.73,336.11L834.29,334.14L838.62,332.51L839.74,330.38z"/>
		<path id="KR" title="South Korea" class="land" d="M835.13,346.53L837.55,350.71L838.24,352.98L838.26,356.96L837.21,358.84L834.67,359.5L832.43,360.91L829.9,361.2L829.59,359.35L830.11,356.78L828.87,353.18L830.95,352.59L829.03,349.59L829.2,349.27L830.46,349.39L831.55,347.79L833.53,347.62L834.72,347.39z"/>
		<path id="KW" title="Kuwait" class="land" d="M609.77,375.76L610.35,377.17L610.1,377.9L611,380.31L609.02,380.39L608.32,378.88L605.82,378.57L607.88,375.49z"/>
		<path id="KZ" title="Kazakhstan" class="land" d="M674.22,333.11L672.61,333.81L668.92,336.42L667.69,339.07L666.64,339.09L665.88,337.34L662.31,337.22L661.74,334.16L660.37,334.13L660.58,330.33L657.23,327.53L652.42,327.83L649.13,328.39L646.45,324.89L644.16,323.41L639.81,320.57L639.29,320.22L632.07,322.57L632.18,336.7L630.74,336.88L628.78,333.95L626.88,332.89L623.7,333.68L622.46,334.93L622.3,334.01L622.99,332.44L622.46,331.12L619.21,329.82L617.94,326.35L616.4,325.37L616.3,324.09L619.03,324.46L619.14,321.58L621.52,320.94L623.97,321.53L624.48,317.62L623.98,315.11L621.17,315.31L618.79,314.31L615.54,316.1L612.93,316.96L611.5,316.3L611.79,314.2L610,311.44L607.92,311.55L605.54,308.72L607.16,305.5L606.34,304.63L608.57,299.86L611.46,302.39L611.81,299.2L617.59,294.35L621.97,294.23L628.16,297.33L631.47,299.12L634.45,297.25L638.89,297.17L642.48,299.46L643.3,298.15L647.23,298.34L647.94,296.23L643.39,293.14L646.08,290.91L645.56,289.66L648.25,288.45L646.23,285.25L647.51,283.63L658,281.97L659.37,280.78L666.39,278.99L668.91,276.95L673.95,278.01L674.83,283.02L677.76,281.86L681.36,283.49L681.13,286.07L683.82,285.8L690.84,281.31L689.82,282.81L693.4,286.47L699.66,298.05L701.16,295.72L705.02,298.28L709.05,297.14L710.59,297.94L711.94,300.49L713.9,301.33L715.1,303.18L718.71,302.6L720.2,305.23L718.06,308.06L715.73,308.46L715.6,312.64L714.04,314.5L708.48,313.15L706.46,320.41L705.02,321.3L699.47,322.88L701.99,329.63L700.07,330.63L700.29,332.79L698.56,332.24L697.16,330.87L693,330.47L688.35,330.37L687.33,330.79L683.33,329.18L681.74,329.98L681.31,332.22L676.69,330.91L674.85,331.45z"/>
		<path id="LA" title="Lao People's Democratic Republic" class="land" d="M770.27,423.21L771.18,421.91L771.31,419.47L769.04,416.94L768.86,414.07L766.73,411.69L764.61,411.49L764.05,412.51L762.4,412.59L761.56,412.08L758.61,413.82L758.54,411.2L759.23,408.09L757.34,407.96L757.18,406.18L755.96,405.26L756.56,404.16L758.95,402.22L759.2,402.92L760.69,403L760.27,399.57L761.72,399.13L763.36,401.5L764.62,404.22L768.07,404.25L769.16,406.84L767.37,407.61L766.56,408.68L769.92,410.44L772.25,413.9L774.02,416.47L776.14,418.49L776.85,420.53L776.34,423.41L773.85,422.35L772.58,424.34z"/>
		<path id="LB" title="Lebanon" class="land" d="M575.69,364.93L574.94,364.98L574.68,365.56L573.74,365.56L574.74,362.83L576.13,360.45L576.19,360.33L577.45,360.51L577.91,361.83L576.38,363.1z"/>
		<path id="LK" title="Sri Lanka" class="land" d="M704.57,442.37L704.15,445.29L702.98,446.09L700.54,446.73L699.2,444.5L698.71,440.47L699.98,435.89L701.91,437.46L703.22,439.44z"/>
		<path id="MM" title="Myanmar" class="land" d="M754.36,405.95L752.72,407.23L750.74,407.37L749.46,410.56L748.28,411.09L749.64,413.66L751.42,415.79L752.56,417.71L751.54,420.23L750.57,420.76L751.24,422.21L753.11,424.49L753.43,426.09L753.38,427.42L754.48,430.02L752.94,432.67L751.58,435.58L751.31,433.48L752.17,431.3L751.23,429.62L751.46,426.51L750.32,425.03L749.41,421.59L748.9,417.93L747.69,415.53L745.84,416.99L742.65,419.05L741.08,418.79L739.34,418.12L740.31,414.51L739.73,411.77L737.53,408.38L737.87,407.31L736.23,406.93L734.24,404.51L734.06,402.1L735.04,402.56L735.09,400.41L736.48,399.69L736.18,398.41L736.81,397.38L736.92,394.23L739.11,394.93L740.36,392.41L740.51,390.91L742.05,388.31L741.97,386.53L745.6,384.37L747.6,384.94L747.37,383.01L748.36,382.43L748.14,381.23L749.78,380.99L750.72,382.85L751.94,383.6L752.03,386L751.91,388.57L749.26,391.15L748.92,394.78L751.88,394.28L752.55,397.08L754.33,397.67L753.51,400.17L755.59,401.3L756.81,401.85L758.86,400.98L758.95,402.22L756.56,404.16L755.96,405.26z"/>
		<path id="MN" title="Mongolia" class="land" d="M721.29,304.88L724.25,304.14L729.6,300.4L733.87,298.33L736.3,299.68L739.23,299.74L741.1,301.79L743.9,301.94L747.96,303.03L750.68,300L749.54,297.4L752.45,292.74L755.59,294.61L758.13,295.14L761.43,296.29L761.96,299.61L765.95,301.45L768.6,300.64L772.14,300.07L774.95,300.65L777.7,302.74L779.4,304.94L782,304.9L785.53,305.59L788.11,304.53L791.8,303.82L795.91,300.76L797.59,301.23L799.06,302.69L802.4,302.33L801.04,305.58L799.06,309.8L799.78,311.51L801.37,310.98L804.13,311.63L806.29,310.09L808.54,311.42L811.08,314.31L810.77,315.76L808.56,315.3L804.49,315.84L802.51,317L800.46,319.66L796.18,321.21L793.39,323.31L790.51,322.51L788.93,322.15L787.46,324.69L788.35,326.19L788.81,327.47L786.84,328.77L784.83,330.82L781.56,332.15L777.35,332.3L772.82,333.61L769.56,335.62L768.32,334.46L764.93,334.46L760.78,332.17L758.01,331.6L754.28,332.13L748.49,331.28L745.4,331.37L743.76,329.1L742.48,325.53L740.75,325.1L737.36,322.65L733.58,322.1L730.25,321.42L729.24,319.69L730.32,314.96L728.39,311.65L724.39,310.08L722.03,307.85z"/>
		<path id="MY" title="Malaysia" class="land" d="M758.65,446.07l0.22,1.44l1.85,-0.33l0.92,-1.15l0.64,0.26l1.66,1.69l1.18,1.87l0.16,1.88l-0.3,1.27l0.27,0.96l0.21,1.65l0.99,0.77l1.1,2.46l-0.05,0.94l-1.99,0.19l-2.65,-2.06l-3.32,-2.21l-0.33,-1.42l-1.62,-1.87l-0.39,-2.31l-1.01,-1.52l0.31,-2.04l-0.62,-1.19l0.49,-0.5L758.65,446.07zM807.84,450.9l-2.06,0.95l-2.43,-0.47l-3.22,0l-0.97,3.17l-1.08,0.97l-1.44,3.88l-2.29,0.59l-2.65,-0.78l-1.34,0.24l-1.63,1.41l-1.79,-0.2l-1.81,0.57l-1.92,-1.57l-0.47,-1.86l2.05,0.96l2.17,-0.52l0.56,-2.36l1.2,-0.53l3.36,-0.6l2.01,-2.21l1.38,-1.77l1.28,1.45l0.59,-0.95l1.34,0.09l0.16,-1.78l0.13,-1.38l2.16,-1.95l1.41,-2.19l1.13,-0.01l1.44,1.42l0.13,1.22l1.85,0.78l2.34,0.84l-0.2,1.1l-1.88,0.14L807.84,450.9z"/>
		<path id="NP" title="Nepal" class="land" d="M722.33,382.45L722.11,383.8L722.48,385.79L722.16,387.03L719.83,387.08L716.45,386.35L714.29,386.06L712.67,384.47L708.83,384.06L705.17,382.29L702.53,380.74L699.81,379.54L700.9,376.55L702.68,375.09L703.84,374.31L706.09,375.31L708.92,377.4L710.49,377.86L711.43,379.39L713.61,380.02L715.89,381.41L719.06,382.14z"/>
		<path id="OM" title="Oman" class="land" d="M640.29,403.18l-1.05,2.04l-1.27,-0.16l-0.58,0.71l-0.45,1.5l0.34,1.98l-0.26,0.36l-1.29,-0.01l-1.75,1.1l-0.27,1.43l-0.64,0.62l-1.74,-0.02l-1.1,0.74l0.01,1.18l-1.36,0.81l-1.55,-0.27l-1.88,0.98l-1.3,0.16l-0.92,-2.04l-2.19,-4.84l8.41,-2.96l1.87,-5.97l-1.29,-2.14l0.07,-1.22l0.82,-1.26l0.01,-1.25l1.27,-0.6l-0.5,-0.42l0.23,-2l1.43,-0.01l1.26,2.09l1.57,1.11l2.06,0.4l1.66,0.55l1.27,1.74l0.76,1l1,0.38l-0.01,0.67l-1.02,1.79l-0.45,0.84L640.29,403.18zM633.37,388.64L633,389.2l-0.53,-1.06l0.82,-1.06l0.35,0.27L633.37,388.64z"/>
		<path id="PH" title="Philippines" class="land" d="M829.59,439.86l0.29,1.87l0.17,1.58l-0.96,2.57l-1.02,-2.86l-1.31,1.42l0.9,2.06l-0.8,1.31l-3.3,-1.63l-0.79,-2.03l0.86,-1.33l-1.78,-1.33l-0.88,1.17l-1.32,-0.11l-2.08,1.57l-0.46,-0.82l1.1,-2.37l1.77,-0.79l1.53,-1.06l0.99,1.27l2.13,-0.77l0.46,-1.26l1.98,-0.08l-0.17,-2.18l2.27,1.34l0.24,1.42L829.59,439.86zM822.88,434.6l-1.01,0.93l-0.88,1.79l-0.88,0.84l-1.73,-1.95l0.58,-0.76l0.7,-0.79l0.31,-1.76l1.55,-0.17l-0.45,1.91l2.08,-2.74L822.88,434.6zM807.52,437.32l-3.73,2.67l1.38,-1.97l2.03,-1.74l1.68,-1.96l1.47,-2.82l0.5,2.31l-1.85,1.56L807.52,437.32zM817,430.02l1.68,0.88l1.78,0l-0.05,1.19l-1.3,1.2l-1.78,0.85l-0.1,-1.32l0.2,-1.45L817,430.02zM827.14,429.25l0.79,3.18l-2.16,-0.75l0.06,0.95l0.69,1.75l-1.33,0.63l-0.12,-1.99l-0.84,-0.15l-0.44,-1.72l1.65,0.23l-0.04,-1.08l-1.71,-2.18l2.69,0.06L827.14,429.25zM816,426.66l-0.74,2.47l-1.2,-1.42l-1.43,-2.18l2.4,0.1L816,426.66zM815.42,410.92l1.73,0.84l0.86,-0.76l0.25,0.75l-0.46,1.22l0.96,2.09l-0.74,2.42l-1.65,0.96l-0.44,2.33l0.63,2.29l1.49,0.32l1.24,-0.34l3.5,1.59l-0.27,1.56l0.92,0.69l-0.29,1.32l-2.18,-1.4l-1.04,-1.5l-0.72,1.05l-1.79,-1.72l-2.55,0.42l-1.4,-0.63l0.14,-1.19l0.88,-0.73l-0.84,-0.67l-0.36,1.04l-1.38,-1.65l-0.42,-1.26l-0.1,-2.77l1.13,0.96l0.29,-4.55l0.91,-2.66L815.42,410.92z"/>
		<path id="PK" title="Pakistan" class="land" d="M681.52,365.64L680.94,360.84L682.81,359.16L679.77,356.55L678.81,356.56L678.45,355.41L681.53,353.07L681.65,352.96L679.71,353.2L676.7,353.93L675.06,355.44L675.72,356.9L676.05,358.6L674.65,360.03L674.77,361.33L674,362.55L671.33,362.44L672.43,364.66L670.65,365.51L669.46,367.51L669.61,369.49L668.51,370.41L667.48,370.11L665.33,370.54L665.03,371.45L662.94,371.45L661.38,373.29L661.28,376.04L657.63,377.37L655.68,377.09L655.11,377.79L653.44,377.39L650.63,377.87L645.94,376.23L647.32,377.91L648.45,379.84L651.13,381.24L651.21,384.01L652.55,384.52L652.78,385.96L648.74,387.57L647.68,391.17L651.63,390.73L656.19,390.68L661.35,390.1L663.52,392.44L664.36,394.64L666.41,395.41L668.28,393.37L674.45,393.38L673.89,390.74L672.32,389.18L672,386.79L670.16,385.39L673.25,382.09L676.51,382.33L679.44,379.01L681.2,375.75L683.92,372.51L683.88,370.18L686.27,368.27L684,366.64L683.99,366.6L683.9,366.63z"/>
		<path id="PS" title="Palestinian Territories" class="land" d="M574.92,367.87L574.92,369.88L574.5,370.84L573.18,371.29L573.31,370.43L574.02,369.97L573.32,369.61L573.9,367.41z"/>
		<path id="QA" title="Qatar" class="land" d="M617.72,392.16L617.53,389.92L618.29,388.3L619.05,387.96L619.9,388.93L619.95,390.74L619.34,392.55L618.56,392.77z"/>
		<path id="RU-asia" title="Russia" class="land" d="M873.57,150.63l3.98,3.81l0.34,2.57l-4.25,0.07l-5.75,-1.08l-0.49,-0.52l2.66,-3.92L873.57,150.63zM769.87,98.34l0.83,-5.72l-7.11,-8.34l-2.11,-0.98l-2.3,1.7l-5.12,18.6L769.87,98.34zM894.64,142.03l3.24,-4.25l-7.04,-2.88l-5.23,-1.68l-0.67,3.59l5.21,4.27L894.64,142.03zM979.95,178.65l3.66,-0.52l2.89,-2.06l0.24,-1.19l-4.06,-2.51l-2.38,-0.02l-0.36,0.37l-3.57,3.64l0.5,2.73L979.95,178.65zM869.51,140.34l10.33,0.3l2.21,-8.14l-10.13,-6.07l-7.4,-0.51l-3.7,2.18l-1.51,7.75l5.55,7.01L869.51,140.34zM736.89,82.07l4.65,5.73l7.81,4.2l6.12,-1.8l0.69,-13.62l-6.46,-16.04l-5.45,-9.02l-6.07,4.11l-7.28,11.83l3.83,3.27L736.89,82.07zM1002.78,209.19l-7.61,-1.07l0.65,5.15l-1.89,-1.74l0.24,-4.44l-7.35,-7.34l-6.87,-5.86l-3.92,-3.44l-8.06,-3.84l-5.83,0.49l-8.95,-2.29l-1.25,3.62l2.27,5.07l-3.47,2.48l-4.88,-6.99l-5.31,0.89l-5.29,-1.57l-4.97,0.21l-3.75,1.64l-3.45,-2.29l0.34,-6.02l-2.33,-3.5l-5.58,-1.41l-11.32,1.62l-7.34,-6.65l-2.39,-5.35l-25.32,-6.06l-3.7,4.07l2.02,8.4l-4.59,-1.24l-2.07,2.47l-5.43,-2.72l-4.78,2.38l-4.5,-4l-2.71,9.18l-4.41,-3.49l-3.52,-6.98l1.66,-3.84l-1.29,-6.04l-4.53,-5.14l-4.48,0.05l-5.95,-1.74l-0.16,7.47l-11.72,-1.43l-0.68,-4.58l-9,-1.65l-4.48,1.57l-1.23,2.56l-1.43,-6.39l-2.52,1.91l-4.15,-2.55l-3.48,-1.43l2.11,-3.08l7.37,-5.92l3.1,-3.24l0.7,-5.85l-2.25,-4.35l-6.32,-5.84l-8.2,-0.16l-2.56,2.94l-0.76,-6.03l-6.35,-1.92l3.82,-3.13l-4.81,-4.21l-6.62,5.31l-2.68,5.33l-0.77,5.24l-5.15,-0.2l-6.29,6.24l-2.29,-2.61l-7.36,1.08l-0.94,3.15l-7.4,1.51l-5.45,5.51l-3.22,0.3l-3.25,7.02l2.28,5.38l-6.08,1.32l-6.74,-0.44l-4.88,2.02l0.28,10.28l2.49,7.62l-5.18,-5.18l-5.82,0.49l-4.69,3.58l1.28,6.37l-3,-1.59l1.11,-8.67l-1.47,-5.19l-1.4,0.22l0.65,6.62l-5.02,6.04l3.64,7.03l-2.24,8.28l0.67,4.42l3.07,0.64l-1.31,5.08l1.63,4.26l-2.43,3.49l-0.74,3.55l-3.08,1.82l-1.12,2.51l-3.21,-1.02l5.49,-10.2l1.2,-5.01l-3.09,-4.73l0.64,-11.07l-0.9,-5.94l-1.74,-2.78l2.66,-7.28l-0.58,-5.18l-7.42,-2.51l-2.08,1.88l-1.84,8.42l-5.17,7.99l0.08,2.74l1.5,6.49l-0.92,3.83l3.38,0.78l0.08,1.68l2.85,4.11l-1.88,3.97l-1.6,-1.39l0.92,7.34l-2.03,4.04l-3.76,3.86l-3.93,3.13l-4.82,5.44l-5.23,4.07l-1.89,19.97l-1.34,8.84l-1.77,5l-1.78,3.54l-2.17,2.73l-0.56,2.42l2.11,1.76l0.31,2.15l-1.66,2.67l-2.57,0.64l-3.08,0.37l1.3,2.44l1.2,1.83l1.81,2.32l1.9,-1.5l1.84,-1.12l1.89,1.07l0.71,1.75l-1.33,1.39l-1.13,2.2l0.09,2.65l1.88,0.67l0.8,1.88l0.3,0.11l2.33,-1.92l-0.53,-1.25l2.69,-1.2l-2.02,-3.21l1.29,-1.62l10.49,-1.66l1.37,-1.19l7.02,-1.79l2.52,-2.03l5.04,1.06l0.88,5.01l2.93,-1.17l3.6,1.63l-0.23,2.58l2.69,-0.27l7.03,-4.49l-1.03,1.5l3.58,3.66l6.27,11.58l1.49,-2.33l3.86,2.57l4.03,-1.14l1.55,0.8l1.35,2.55l1.96,0.85l1.19,1.84l3.61,-0.58l1.49,2.63l1.1,-0.35l2.96,-0.74l5.35,-3.74l4.26,-2.07l2.44,1.35l2.92,0.06l1.87,2.04l2.8,0.16l4.05,1.09l2.73,-3.03l-1.14,-2.6l2.9,-4.66l3.14,1.87l2.54,0.53l3.3,1.15l0.53,3.32l3.98,1.84l2.65,-0.81l3.55,-0.57l2.81,0.58l2.75,2.09l1.7,2.2l2.6,-0.04l3.53,0.7l2.58,-1.06l3.69,-0.71l4.11,-3.06l1.68,0.47l1.47,1.46l3.35,-0.36l3.37,1.63l3.95,-2.74l-0.03,-1.93l2.53,-4.72l1.56,-1.45l-0.04,-2.52l-1.54,-1.1l2.32,-2.31l3.48,-0.84l3.72,-0.13l4.2,1.39l2.46,1.71l1.73,4.61l1.05,1.94l0.98,2.73l1.04,4.28l4.88,1.38l3.32,3.03l1.13,3.95l4.26,0l2.43,-1.65l4.63,-1.24l-1.47,3.76l-1.09,1.51l-0.96,4.46l-1.89,3.89l-3.4,-0.7l-2.41,1.4l0.74,3.36l-0.4,4.55l-1.43,0.1l0.02,1.93l0.39,0.66l0.44,-1.26l3.76,-2.79l1.76,1.86l1.77,-0.05l3.74,-2.25l1.81,-2.28l3.78,-4.53l3.81,-4.66l0.94,-2.82l4.23,-6.01l1.26,-6.85l0.24,-5.27l2.19,-4.51l-0.09,-3.92l-4.05,-5.19l-3.08,-0.31l-1.79,2.38l-2.72,-1.05l-1.38,-3l-4.42,-0.61l10.75,-11.78l9.08,-10.33l9.22,-1.62l8.57,0.94l3.47,-2.7l4.36,0.84l-0.2,3.95l4.33,-0.56l6.26,-1.42l-2.32,-3.38l7.02,-9.56l7.24,-2l2.3,7.14l7.11,-6.36l1.68,-4.92l3.41,-0.51l-2.25,8.37l-5.04,4.57l-4.83,5.73l-5.01,6.78l-4.36,1.18l-0.15,2.44l-2.37,3.07l-1.35,6.95l1.56,10.65l1.2,6.69l1.04,3.08l4.04,-4.18l0.84,-4.66l4.18,-1.14l0.97,-5.4l4.9,-2.47l-1.17,-2.1l1.2,-4.15l2.6,-0.19l0.38,-7.46l-3.19,-1.17l-0.1,-2.14l3.36,-5.22l0.9,-3.63l3.75,0.76l2.7,-2.39l1.28,2.08l7.31,-4.42l4.01,3.9l1.03,-2.55l4.07,-3.5l4.29,-4.1l2.49,-0.69l7.84,-4.51l5.23,1.32l0.72,-1.6l-0.33,-2.53l-1.29,-1.67l-1.67,-5.2l-2.53,-3.44l3.63,0.48l3.6,-2.89l0.02,-0.04l1.59,-2.83l-1.26,-3.19l3.36,-1.64l-0.61,2.55l1.52,2.37l3.19,-0.87l2.85,1.1l0.63,2.89l3.73,1.92l2.14,2.26l2.63,0.19l1.12,-1.35l0.07,-6.46l4.6,-0.7l2.78,-2.97L1002.78,209.19zM880.84,306.25l-2.82,-7.68l-1.16,-4.51l0.07,-4.5l-0.97,-4.5l-0.73,-3.15l-1.25,0.67l1.11,2.21l-2.59,2.17l-0.25,6.3l1.64,4.41l-0.12,5.85l-0.65,3.24l0.32,4.54l-0.31,4.01l0.52,3.4l1.84,-3.13l2.13,2.44l0.08,-2.84l-2.73,-4.23l1.72,-6.11L880.84,306.25z"/>
		<path id="SA" title="Saudi Arabia" class="land" d="M595.2,417.22L594.84,415.98L593.99,415.1L593.77,413.93L592.33,412.89L590.83,410.43L590.04,408.02L588.1,405.98L586.85,405.5L584.99,402.65L584.67,400.57L584.79,398.78L583.18,395.42L581.87,394.23L580.35,393.6L579.43,391.84L579.58,391.15L578.8,389.55L577.98,388.86L576.89,386.54L575.18,384.02L573.75,381.86L572.36,381.87L572.79,380.13L572.92,379.02L573.26,377.74L576.38,378.25L577.6,377.27L578.27,376.11L580.41,375.67L580.87,374.58L581.8,374.04L579,370.78L584.62,369.13L585.15,368.64L588.53,369.53L592.71,371.82L600.61,378.31L605.82,378.57L608.32,378.88L609.02,380.39L611,380.31L612.1,383.04L613.48,383.75L613.96,384.86L615.87,386.17L616.04,387.46L615.76,388.49L616.12,389.53L616.92,390.4L617.3,391.41L617.72,392.16L618.56,392.77L619.34,392.55L619.87,393.72L619.98,394.43L621.06,397.51L629.48,399.03L630.05,398.39L631.33,400.53L629.46,406.5L621.05,409.46L612.97,410.59L610.35,411.91L608.34,414.98L607.03,415.46L606.33,414.49L605.26,414.64L602.55,414.35L602.03,414.05L598.8,414.12L598.04,414.39L596.89,413.63L596.14,415.06L596.43,416.29z"/>
		<path id="SY" title="Syria" class="land" d="M584.02,364.6L578.53,368.14L575.41,366.82L575.35,366.8L575.73,366.3L575.69,364.93L576.38,363.1L577.91,361.83L577.45,360.51L576.19,360.33L575.93,357.72L576.61,356.31L577.36,355.56L578.11,354.8L578.27,352.86L579.18,353.54L582.27,352.57L583.76,353.22L586.07,353.21L589.29,351.9L590.81,351.96L594,351.42L592.56,353.6L591.02,354.46L591.29,356.98L590.23,361.1z"/>
		<path id="TH" title="Thailand" class="land" d="M762.89,429.18L760.37,427.87L757.97,427.93L758.38,425.68L755.91,425.7L755.69,428.84L754.18,432.99L753.27,435.49L753.46,437.54L755.28,437.63L756.42,440.2L756.93,442.63L758.49,444.24L760.19,444.57L761.64,446.02L760.73,447.17L758.87,447.51L758.65,446.07L756.37,444.84L755.88,445.34L754.77,444.27L754.29,442.88L752.8,441.29L751.44,439.96L750.98,441.61L750.45,440.05L750.76,438.29L751.58,435.58L752.94,432.67L754.48,430.02L753.38,427.42L753.43,426.09L753.11,424.49L751.24,422.21L750.57,420.76L751.54,420.23L752.56,417.71L751.42,415.79L749.64,413.66L748.28,411.09L749.46,410.56L750.74,407.37L752.72,407.23L754.36,405.95L755.96,405.26L757.18,406.18L757.34,407.96L759.23,408.09L758.54,411.2L758.61,413.82L761.56,412.08L762.4,412.59L764.05,412.51L764.61,411.49L766.73,411.69L768.86,414.07L769.04,416.94L771.31,419.47L771.18,421.91L770.27,423.21L767.64,422.8L764.02,423.35L762.22,425.73z"/>
		<path id="TJ" title="Tajikistan" class="land" d="M674.37,340.62L673.34,341.75L670.29,341.14L670.02,343.24L673.06,342.96L676.53,344.13L681.83,343.58L682.54,346.91L683.46,346.55L685.16,347.36L685.07,348.74L685.49,350.75L682.59,350.75L680.66,350.49L678.92,352.06L677.67,352.4L676.69,353.14L675.58,351.99L675.85,349.04L675,348.87L675.3,347.78L673.79,346.98L672.58,348.21L672.28,349.64L671.85,350.16L670.17,350.09L669.27,351.69L668.32,351.02L666.29,352.14L665.44,351.72L667.01,348.15L666.41,345.49L664.35,344.63L665.08,343.04L667.42,343.21L668.75,341.2L669.64,338.85L673.39,337.99L672.81,339.7L673.21,340.72z"/>
		<path id="TL" title="Timor-Leste" class="land" d="M825.65,488.25L825.98,487.59L828.39,486.96L830.35,486.86L831.22,486.51L832.28,486.86L831.25,487.62L828.33,488.85L825.98,489.67L825.93,488.81z"/>
		<path id="TM" title="Turkmenistan" class="land" d="M646.88,356.9L646.63,353.99L644.54,353.87L641.34,350.78L639.1,350.39L636,348.6L634,348.27L632.77,348.93L630.9,348.83L628.91,350.85L626.44,351.53L625.92,349.04L626.33,345.31L624.14,344.09L624.86,341.61L623,341.39L623.62,338.3L626.26,339.21L628.73,338.02L626.68,335.79L625.88,333.65L623.62,334.61L623.34,337.34L622.46,334.93L623.7,333.68L626.88,332.89L628.78,333.95L630.74,336.88L632.18,336.7L635.34,336.65L634.88,334.77L637.28,333.47L639.64,331.27L643.42,333.27L643.72,336.26L644.79,337.03L647.82,336.86L648.76,337.53L650.14,341.32L653.35,343.83L655.18,345.52L658.11,347.27L661.84,348.79L661.76,350.95L660.92,350.84L659.59,349.9L659.15,351.15L656.79,351.83L656.23,354.62L654.65,355.67L652.44,356.19L651.85,357.74L649.74,358.2z"/>
		<path id="TW" title="Taiwan" class="land" d="M816.7,393.27L815.01,398.14L813.81,400.62L812.33,398.07L812.01,395.82L813.66,392.82L815.91,390.5L817.19,391.41z"/>
		<path id="UZ" title="Uzbekistan" class="land" d="M661.76,350.95L661.84,348.79L658.11,347.27L655.18,345.52L653.35,343.83L650.14,341.32L648.76,337.53L647.82,336.86L644.79,337.03L643.72,336.26L643.42,333.27L639.64,331.27L637.28,333.47L634.88,334.77L635.34,336.65L632.18,336.7L632.07,322.57L639.29,320.22L639.81,320.57L644.16,323.41L646.45,324.89L649.13,328.39L652.42,327.83L657.23,327.53L660.58,330.33L660.37,334.13L661.74,334.16L662.31,337.22L665.88,337.34L666.64,339.09L667.69,339.07L668.92,336.42L672.61,333.81L674.22,333.11L675.05,333.48L672.7,335.91L674.77,337.31L676.77,336.38L680.09,338.34L676.5,340.98L674.37,340.62L673.21,340.72L672.81,339.7L673.39,337.99L669.64,338.85L668.75,341.2L667.42,343.21L665.08,343.04L664.35,344.63L666.41,345.49L667.01,348.15L665.44,351.72L663.32,350.98z"/>
		<path id="VN" title="Vietnam" class="land" d="M778.21,401.87L774.47,404.43L772.13,407.24L771.51,409.29L773.66,412.38L776.28,416.2L778.82,417.99L780.53,420.32L781.81,425.64L781.43,430.66L779.1,432.53L775.88,434.36L773.6,436.72L770.1,439.34L769.08,437.53L769.87,435.62L767.79,434.01L770.22,432.87L773.16,432.67L771.93,430.94L776.64,428.75L776.99,425.33L776.34,423.41L776.85,420.53L776.14,418.49L774.02,416.47L772.25,413.9L769.92,410.44L766.56,408.68L767.37,407.61L769.16,406.84L768.07,404.25L764.62,404.22L763.36,401.5L761.72,399.13L763.23,398.39L765.46,398.41L768.19,398.06L770.58,396.44L771.93,397.58L774.5,398.13L774.05,399.87L775.39,401.09z"/>
		<path id="YE" title="Yemen" class="land" d="M624.16,416.33L622.13,417.12L621.59,418.4L621.52,419.39L618.73,420.61L614.25,421.96L611.74,423.99L610.51,424.14L609.67,423.97L608.03,425.17L606.24,425.72L603.89,425.87L603.18,426.03L602.57,426.78L601.83,426.99L601.4,427.72L600.01,427.66L599.11,428.04L597.17,427.9L596.44,426.23L596.52,424.66L596.07,423.81L595.52,421.69L594.71,420.5L595.27,420.36L594.98,419.04L595.32,418.48L595.2,417.22L596.43,416.29L596.14,415.06L596.89,413.63L598.04,414.39L598.8,414.12L602.03,414.05L602.55,414.35L605.26,414.64L606.33,414.49L607.03,415.46L608.34,414.98L610.35,411.91L612.97,410.59L621.05,409.46L623.25,414.3z"/>
	</g>
</svg>