<?xml version="1.0" encoding="utf-8"?>
<!-- (c) ammap.com | SVG map of Europe - Low -->
<svg xmlns="http://www.w3.org/2000/svg" xmlns:amcharts="http://amcharts.com/ammap" xmlns:xlink="http://www.w3.org/1999/xlink" version="1.1">
	<defs>
		<style type="text/css">
			.land
			{
				fill: #CCCCCC;
				fill-opacity: 1;
				stroke:white;
				stroke-opacity: 1;
				stroke-width:0.5;
			}
		</style>

		<amcharts:ammap projection="mercator" leftLongitude="-27.209780" topLatitude="80.486581" rightLongitude="87.150806" bottomLatitude="27.660797"></amcharts:ammap>

		<!-- All areas are listed in the line below. You can use this list in your script. -->
		<!--{id:"RU"},{id:"NL"},{id:"CY"},{id:"UA"},{id:"TR"},{id:"SE"},{id:"SI"},{id:"SK"},{id:"RS"},{id:"RO"},{id:"PT"},{id:"PL"},{id:"SJ"},{id:"NO"},{id:"ME"},{id:"MK"},{id:"MD"},{id:"LV"},{id:"LU"},{id:"LT"},{id:"LI"},{id:"KV"},{id:"JE"},{id:"IS"},{id:"IE"},{id:"IM"},{id:"HU"},{id:"HR"},{id:"GR"},{id:"GG"},{id:"GE"},{id:"FR"},{id:"FO"},{id:"FI"},{id:"EE"},{id:"ES"},{id:"GB"},{id:"DK"},{id:"DE"},{id:"CZ"},{id:"CH"},{id:"BY"},{id:"BA"},{id:"BG"},{id:"BE"},{id:"AZ"},{id:"AT"},{id:"AM"},{id:"AX"},{id:"AL"},{id:"IT"},{id:"KZ"}, {id:"AD"}, {id:"MT"}, {id:"MC"}, {id:"SM"}, {id:"GI"},{id:"VA"}-->

	</defs>
	<g>
		<path id="RU" title="Russia" class="land" d="M353.81,511.91,362.78,514.33,364.51,516.53,364.12,522.51,342.82,521.32,345.31,515.94,348.99,515.08,351.54,511.65,351.93,511.74,349.49,515.23,352.19,516.16,353.49,515.78,353.81,511.91zM452.03,376.22,451.78,379.5,450.09,376.72,452.03,376.22zM549.36,306.48,549.06,309.06,548.21,307.61,545.06,312.61,540.24,314.78,537.06,313.63,536.26,304.89,539.8,300.57,542.36,300.25,549.36,306.48zM615.38,549.23,618.07,552.77,625.41,556.3,623.21,562.18,618.37,563.31,615.34,561.38,611.73,565.17,611.25,563.82,607.42,563.04,603.89,559.1,600.38,558.8,597.71,560.97,594.81,559.09,591.31,559.57,585.88,564.22,578.84,559.66,578.26,564.72,575.46,559.35,570.06,554.6,564.9,554.61,562.53,552.14,556.63,554.68,552.92,551.93,549.24,556.68,544.19,558.89,543.02,561.37,538.31,563.91,539.22,571.11,536.36,571.84,530.76,566.13,526.62,573.52,526.03,576.94,527.58,579.17,525.36,582.71,525.08,586.71,527.8,588.52,529.34,593.46,535.23,593.78,540.57,603.04,537.87,603.21,537.75,604.69,542.4,607.31,538.71,609.75,539.02,611.58,537.38,611.22,531.63,614.6,530.49,613.68,529.73,618.1,525.4,624.88,529.44,628.64,530.48,633.75,531.72,630.68,530.49,638.55,537.96,649.39,532.7,655.18,529.51,654.44,525.68,649.68,523.53,648.97,518.2,646.13,518.65,643.46,513.03,641.1,512.35,642.38,510.57,641.17,505.99,642.79,505.69,641.19,498.81,637.31,490.86,636.85,484.58,633.94,481.22,633.61,480.07,635,471.57,626.9,457.49,618.74,459.61,617.42,458.12,616.63,459.1,616.1,461.44,617.58,464.36,616.58,466.29,610.57,470.06,609.71,465.17,604.39,470.11,604.12,469.69,602.66,475.45,599.78,473.64,598.13,468.18,599.92,469.22,594.77,472.8,592.32,478.72,591.99,479.93,588.16,477.82,584.89,478.82,582.68,480.24,582.54,478.1,580.63,480.94,578.13,480.76,574.77,468.48,569.81,467.06,571.2,462.85,566.03,457.44,568.16,454.05,566.07,450.51,566.49,448.78,559.56,446.96,557.6,441.23,557.05,440.61,552.47,442.47,551.37,438.01,545.19,429.25,545.61,427.14,548.42,424.73,547.87,423.39,540.61,421.33,537.74,422.4,535.73,427.28,536.9,431.08,533.21,429.35,530.11,424.66,528.78,425.15,526.26,422.3,524.36,420.09,520.95,420.61,519.4,418.23,517.56,419.43,514.43,418.31,511.41,418.96,508.28,414.42,505,409.36,506.92,408.64,503.87,406.32,502.88,404.73,503.83,400.37,501.41,400.07,496.52,398.36,492.75,396.95,492.84,398.22,487.3,395.01,484.37,397.88,480.05,396.02,475.59,395.56,468.3,400.39,460.6,399.46,459.15,399.77,455.19,401.63,456.38,402.87,454.28,405.76,454.56,407.1,452.26,413.67,453.96,414.01,452.83,410.97,449.62,406.58,449.67,403.71,447.17,402.83,443.04,398.01,444.98,419.15,419.8,423.18,411.57,420.8,406.78,412.79,398.83,416.39,393.59,416.13,391.13,412.76,386.65,413.59,383.37,410.18,379.63,411.68,376.81,410.21,375.15,410.93,369.06,413.49,368.12,413.44,366.4,406.56,347.85,412.77,334.3,408.43,327.26,403.99,324.94,403.15,322,402.6,318.59,404.58,312.98,402.16,311.78,405.88,309.57,408.73,304.34,413.44,301.76,414.06,297.85,418.65,299.73,418.71,294.98,423.27,296.66,424.9,294.35,426.31,294.46,426.22,291.65,432.66,295.59,432.48,298.51,426.94,297.91,428.86,300.87,433.06,301.05,432.91,303.02,436.12,301.85,434.01,308.69,437.67,304.11,446.59,305.8,448.48,304.77,452.31,306.36,464.92,315.73,469.64,321.93,472.34,322.49,477.31,327.08,479.02,327.32,478.93,325.65,482.78,331.39,486.72,333.49,487.85,341.35,489.37,342.35,488.22,348.97,480.91,357.88,471.14,361.74,449.99,356.27,445.35,352.64,443.04,353.67,442.84,351.95,434.07,348.67,432.03,345.61,432.59,344.48,425.62,343.19,429.7,345.92,429.44,347.42,432.13,350.76,434.27,351.47,434.52,353.98,437.48,355.49,435.49,357.39,440.55,359.13,444.45,363.68,445.03,366.7,442.53,372.77,446.77,387.96,450.89,388.93,455.72,394.74,462.98,397.64,466.52,395.56,467.16,393.38,466.43,389.83,461.24,388.46,457.16,382.45,456.87,380.11,458.56,379.34,459.21,376.37,460.95,376.02,466.8,381.06,478.58,385.82,480.6,382.77,483.21,382.64,478.85,373.52,478.98,369.49,484.87,363.49,490.15,360.83,495.1,354.19,497.74,355.82,501.99,355.94,504.82,358.7,504.07,360.83,506.11,360.52,507.86,362.74,507.81,358.97,510.45,351.6,510.05,347.06,509.12,344.26,505.69,341.57,508.68,328.45,508.54,323.78,502.67,316.08,507.48,318.38,514.42,317.84,519.9,319.65,525.24,328.9,525.28,331.08,517.46,332.71,513.24,338.8,517.68,342.77,519.86,347.86,523.95,349.41,531.79,346.4,533.26,335.79,539.72,334.06,539.18,330.24,541.89,330.7,552.29,322.62,561.01,318.57,562.97,320.02,562.29,321.58,563.72,322,565.92,319.57,563.37,317.29,573.19,310.06,577.83,310.13,573.16,311.72,574.32,312.9,572.9,316.81,574.06,320.46,569.54,323.53,574.31,324.26,577.73,323.05,580.33,324.73,580.74,321.59,584.07,318.03,588.29,316.53,595.59,318.28,602.63,312.05,603.06,313.09,603.85,311.55,608.59,309.87,610.7,314.87,608.96,317.13,608.87,320.3,613.09,322,614.42,319.81,614.24,315.47,618.24,315.05,621.23,310.23,616.09,298.72,621.07,293.74,637.59,297.08,643.17,299.8,648.14,303.82,647.92,305.3,662.11,312.35,667.99,319.71,670.65,341.02,665.76,350.74,647.28,367.55,635.7,380.63,623.14,390.42,615.37,459.73,606.85,480.28,601.65,486.85,600.31,492.68,605.37,496.9,606.12,502.08,602.13,508.52,588.56,510.93,598.91,526.8,607.9,520.49,612.44,523.06,614.15,527.28,608.24,535.91,608.46,542.3,612.97,543.9,615.38,549.23zM617.98,292.02,617.91,296.1,612.5,296.19,611.59,293.36,607.89,292.84,604.97,284.41,608.53,281.56,617.98,292.02zM567.13,262.91,569.08,266.06,567.94,271.19,566.02,266.78,562.73,264.6,564.5,262.49,567.13,262.91zM583.41,219.7,590.89,222.2,588.81,231.3,586.13,232.22,583.98,237.13,584.75,244.45,583.27,250.7,591.06,268.31,598.94,276.12,595.71,278.96,590.59,276.01,589.75,276.4,591.36,279.42,588.95,277.56,586.63,278.42,585.89,276.86,581.61,277.38,578.87,275.85,578.57,277.11,570.37,273.15,571.92,272.3,572.3,268.74,575.57,267.93,570.55,263.44,570.56,259.41,563.87,259.27,560.63,260.59,557.76,256.9,558.24,247.74,560.28,245.94,563.29,245.92,566.87,237.12,567.22,234.43,565.12,233.64,564.95,231.65,567.2,229.17,570.28,228.78,569.48,222.63,572.86,220.05,575.89,220.33,579.94,217.83,583.41,219.7zM667.25,144.28,657.26,151.41,639.59,160.08,624.08,169.6,619.79,176.1,616.81,177.69,618.32,180.37,615.48,184.2,613.24,184.46,612.75,187.92,609.82,185.81,608.48,191.07,605.07,190.73,605.63,197.53,604.44,199.96,599.9,202.79,599.82,208.73,596.84,207.07,598.39,211.4,594.49,218.33,590.89,219.96,581.3,216.27,576.54,218.69,575.9,214.17,572.92,208.81,578.85,204.11,583.56,192.73,588.92,190.81,585.72,189.29,585.18,187.47,591.35,179.01,590.29,177.54,587.98,177.8,586.72,174.62,588.23,172.8,591.84,175.34,593.9,171.47,593.68,168.63,595.32,167.77,598.82,168.9,601.86,160.23,607.41,154.98,615.18,151.4,616.82,148.26,621.29,148.96,623.04,143.01,634.96,144.3,645.01,140.27,653.71,134.47,655.78,129.59,660.94,124.33,666.49,121.71,672.11,124.04,675.18,130.72,674.89,134.66,669.95,142.93,667.25,144.28z"/>
		<path id="NL" title="Netherlands" class="land" d="M239.22,555.63,237.04,557.56,233.88,557.15,233.32,555.73,239.22,555.63zM237.36,551.81,238.21,552.8,235.67,552.14,237.36,551.81zM243.67,537.13,242.48,537.52,243.67,535.87,243.67,537.13zM239.22,555.63,233.99,553.97,239.55,554.72,237.34,551.04,240.95,545.59,242.88,538.58,251.59,533.35,256.67,532.97,259.24,534.76,258.13,541.81,255.96,542.18,256.22,543.88,258.15,544.8,256.05,548.1,256.56,549.33,250.83,551.13,252.51,554.95,252.05,558.21,250.21,559.46,251.68,560.68,251.23,562.44,248.63,561.54,249.47,559.87,249.63,559.14,244.64,554.74,239.22,555.63zM246.63,533.59,245.72,533.52,248.36,533,246.63,533.59z"/>
		<path id="CY" title="Cyprus" class="land" d="M442.91,703.27,439.4,705.75,440.13,708.25,437.77,708.4,433.11,711.67,429.35,710.37,428.46,708.53,428.35,707.47,432.25,706.67,432.66,704.94,437.15,705.24,442.91,703.27z"/>
		<path id="UA" title="Ukraine" class="land" d="M468.18,599.92,463.66,600.08,458.62,603.63,452.1,604.51,446.63,609.56,448.42,607.87,448.08,606.3,445.52,608.75,446.68,613.47,449.61,617.16,457.14,616.42,455.92,619.56,449.71,619.24,440.29,625.63,436.09,624.41,436.8,619.25,429.74,616.33,437.54,611.1,437.06,609.65,429.53,609.78,425.18,607.85,426.38,606.41,423.32,605.19,428.75,605.97,430.21,604.59,426.62,604.33,424.7,598.72,425.46,604.26,423.17,604.11,423.38,603.01,422.3,604.47,418.21,605.22,414.32,611.87,410.34,613.27,410.87,617.7,408.83,616.17,404.5,617.95,400.81,615.88,402.74,615.23,405.76,610.1,405.83,606.13,413.73,606.48,412.02,602.5,409.96,601.17,409.74,598.14,407.02,595.97,406.96,591.22,396.34,586.04,390.07,588.25,387.96,588.81,387,590.94,379.02,593.63,376.33,591.56,367.06,590.02,364.86,591.4,359.84,586.78,362.58,579.97,364.7,580.07,363.71,574.46,373.03,564.78,373.07,561.14,369.77,554.22,374.87,550.42,384.46,549.81,393.59,551.68,397.35,554.65,400.61,553.24,404.3,555.13,406.8,553.03,408.45,555.68,413.93,554.65,416.52,556.94,417.94,550.12,420.12,548.13,424.73,547.87,427.14,548.42,429.25,545.61,438.01,545.19,442.47,551.37,440.61,552.47,441.23,557.05,446.96,557.6,448.78,559.56,450.51,566.49,454.05,566.07,457.44,568.16,462.85,566.03,467.06,571.2,468.48,569.81,480.76,574.77,480.94,578.13,478.1,580.63,480.24,582.54,478.82,582.68,477.82,584.89,479.93,588.16,478.72,591.99,472.8,592.32,469.22,594.77,468.18,599.92zM426.4,608.61,427.33,609.09,423.01,606.96,426.4,608.61z"/>
		<path id="TR" title="Turkey" class="land" d="M399.47,648.26,400.71,652,406.5,654.91,405.82,656.88,396,657.2,387.27,665.13,387.61,663.03,391.24,660.27,386.61,660.41,386.16,659.38,390.11,653.37,388.06,650.54,390.05,648.3,394.28,647.14,396.24,648.7,399.47,648.26zM490.38,652.33,496.83,653.03,498.76,651.78,503.38,656,505.29,659.45,504.26,661.55,504.91,664.68,509.11,665.44,512.33,668.39,512.66,668.85,511.11,667.82,509.78,670.84,507.31,671.23,510.19,680.23,508.58,683.87,511.13,685.55,512.31,690.35,509.06,691.73,507.93,689,498.9,688.41,496.1,690.63,495.05,689.04,490.42,690.8,484.97,690.73,475.88,694.22,468.03,692.38,462.94,694.54,457.7,693.21,457.56,697.96,454.12,701.3,452.54,700.6,451.99,697.33,454.54,694.41,453.6,692.3,449.18,695.11,444.53,693.09,437.74,698.39,431.67,699.6,421.2,693.05,417.19,692.68,415.85,697.66,410.75,698.6,407.62,697.2,405.91,693.94,401.42,693.13,400.13,694.52,396.28,694.2,401.01,691.3,394.41,691.75,396.24,690.17,393.1,685.99,394.2,683.26,387.86,680.71,388.87,677.59,390.44,680.21,393.61,679.22,391.05,677,392.73,675.48,390.49,671.97,391.96,669.73,386.66,670.45,387.12,665.88,390.87,662.27,397.54,662.9,398.53,661.28,399.12,662.54,406.16,662.36,404.68,661.09,405.83,660.24,411.8,659.28,406.88,657.51,407.11,654.99,421.3,656,428.38,650.42,434.97,647.94,444.85,648.37,446.57,647.41,448.54,650.43,453.62,650.85,456,654.51,458.51,653.71,469.31,657.63,476.35,656.01,482,657.3,490.38,652.33zM385.7,664.6,383.67,664.6,385.35,663.7,385.7,664.6z"/>
		<path id="SE" title="Sweden" class="land" d="M373.48,366.1,370.35,365.71,366.38,367.24,363.98,365.01,362.58,366.28,361.66,365.16,360.67,369.5,359.54,369.28,358.14,372.32,356.03,372.57,356.32,374.94,354.98,374.04,356.09,377.12,353.15,382.17,355.72,387.6,350.62,396.81,343.61,402.95,341.13,402.74,338.98,406.34,336.1,407.23,334.12,409.93,335.39,410.04,335.13,411.42,333.16,412.99,331.38,411.55,332.26,415.76,330.9,417.19,328.04,417.11,329.54,421.11,327.8,426.38,328.41,428.97,326.6,428.4,326.15,430.51,326.96,442.72,329.73,444.99,331.71,444.24,337.75,451.91,338.55,455.51,331.77,460.8,330.48,460.08,330.39,457.34,329.9,458.39,327.9,457.82,327.78,459,322.4,457.46,318.83,459.23,324.69,459.66,327.33,461.95,335.44,460.16,336.17,461.23,325.13,470.02,319.98,470.25,324.76,472.11,322.93,472.86,322.93,484.71,320.89,494.52,317.37,501.63,310.33,501.18,310.15,502.74,307.77,503.42,306.23,510.34,297.56,510.17,298.15,506.16,294.77,499.63,296.99,499.95,296.01,497.8,297.37,497.66,297.54,495.64,294.43,492.1,287.88,476.91,287.76,474.07,286.53,473.7,285.85,465.67,286.17,464.5,287.47,465.05,288.03,466.71,289.18,466.49,290.23,461.72,289.44,457.71,291.13,454.09,294.87,450.82,295.56,446.15,293.57,438.54,296.35,437.75,297.52,433.66,292.64,428.45,293.64,420.35,291.59,405.53,292.77,400.94,296.93,394.78,299.7,393.62,304.8,394.56,306.02,392.11,305.59,387.59,302.71,385.75,308.3,374.3,308.72,360.73,315.06,357.78,314.65,354.69,321.26,345.03,319.4,338.57,322.4,335.16,323.82,330.26,327.46,326.5,331.45,329,334.05,318.26,345.28,321.91,347.1,319.69,345.27,318.51,347.83,312.82,346.27,309.59,349.67,309.29,358.94,318.9,364.71,321.71,370,329.19,368.76,337.97,370.63,338.63,370.01,343.75,372.35,349.24,370.41,358.68,373.48,366.1zM339.26,480.49,337.49,482.13,338.13,485.99,333,491.92,333.93,489.91,332.93,484.01,335.63,480.56,338.08,479.48,339.26,480.49zM322.1,499.63,321.31,496.24,325.44,486.66,322.1,499.63z"/>
		<path id="SI" title="Slovenia" class="land" d="M322.01,605.73,320.7,605.39,320.07,606.97,316.08,608.64,316.19,611.92,313.67,613.17,314.09,615.72,310.41,615.61,308.9,613.89,307.56,615.58,302.22,615.24,303.18,614.56,304.22,614.3,301.56,610.5,302.59,608.87,300.88,608.05,303.04,605.53,308.77,606.7,311.08,604.69,318.25,603.99,319.16,602.16,320.45,602.22,322.01,605.73z"/>
		<path id="SK" title="Slovakia" class="land" d="M362.58,579.97,359.84,586.78,357.08,587.37,355.26,585.29,348.78,585.54,345.15,589.39,342.96,588.62,337.34,590.86,336.89,593,330.41,593.17,326.27,590.81,324.37,586.96,324.96,584.81,326.19,582.34,330.38,581.86,333.09,578.07,337.62,575.45,339.75,576.6,341.72,574.55,343.96,576.89,343.84,578.62,345.87,578.85,347.93,576.75,356.53,576.48,362.58,579.97z"/>
		<path id="RS" title="Serbia" class="land" d="M347.11,609.53,350.7,613,350.83,615.71,355.52,618.77,354.6,620.09,355.81,621.12,354.64,621.82,359.58,624.52,363.28,623.49,363.9,624.25,362.29,625.52,363.71,627.38,361.45,631.64,365.54,637.14,362.1,640.31,362.48,643.98,361.27,645.14,356.01,645.74,357.29,641.9,354.85,641.15,350.88,636.46,347.8,640.45,340.06,633.95,342.08,632.93,340.4,629.93,342.68,629.2,339.54,626.23,341.09,621.31,338.79,621.42,339.17,618.87,341.44,618.15,338.78,616.37,338.11,611.25,342.88,608.95,347.11,609.53z"/>
		<path id="RO" title="Romania" class="land" d="M400.81,615.88,404.5,617.95,408.83,616.17,410.87,617.7,409.87,621.66,406.44,622.48,406.75,620.42,405.38,620.95,403.32,632.01,393.22,628.04,387.36,629.53,382.51,632.67,365.15,631.15,365.88,628.87,363.71,627.38,362.29,625.52,363.9,624.25,363.28,623.49,359.58,624.52,354.64,621.82,355.81,621.12,354.6,620.09,355.52,618.77,350.83,615.71,350.7,613,347.11,609.53,353.04,607.85,358.95,595.82,364.86,591.4,367.06,590.02,376.33,591.56,379.02,593.63,387,590.94,387.96,588.81,390.07,588.25,392.51,589.3,399.86,601.03,400.99,604.35,399.88,614.45,400.81,615.88z"/>
		<path id="PT" title="Portugal" class="land" d="M94.95,725.4,98.3,726.28,96.11,727.04,94.95,725.4zM37.97,684.44,41.06,685.09,37.39,685.1,36.64,683.98,37.97,684.44zM28.36,677.57,26.27,676.52,28.01,676.31,28.36,677.57zM160.86,690.04,157.98,691.5,150.14,691.28,151.38,687.92,150.93,679.26,152.36,679.45,151.48,678.65,148.69,679.25,148.44,677.46,149.98,676.68,151.53,673.82,149.21,676.72,147.72,677.1,146.89,676.24,152.25,659.16,151.63,648.52,155.07,646.74,155.83,649.68,166.17,648.5,166.68,650.94,168.9,652.2,164.08,656.87,164.88,662.78,163.38,664.32,163.76,667.56,159.99,668.75,163.61,674.01,161.29,679.17,163.88,681.48,160.61,685.39,160.86,690.04z"/>
		<path id="PL" title="Poland" class="land" d="M342.82,521.32,364.12,522.51,368.19,524.31,368.96,527.3,371.86,540.49,366.87,545.83,370.09,548.53,369.77,554.22,373.07,561.14,373.03,564.78,363.71,574.46,364.7,580.07,362.58,579.97,356.53,576.48,347.93,576.75,345.87,578.85,343.84,578.62,343.96,576.89,341.72,574.55,339.75,576.6,337.62,575.45,335.8,571.62,329.5,569.14,330,567.13,328.07,567.69,324.47,565.87,325.2,567.87,322.84,569.29,319.95,565.91,321.36,564.32,320.44,563.45,318.59,563.92,311.76,559.63,310.52,561.29,311.91,557.07,309.12,550.8,310.13,548.08,309.24,543.17,305.93,539.28,307.83,535.69,306.81,529.7,309,530.72,308.83,528.63,306.5,528.09,306.49,527.18,319.79,523.27,322.31,520.23,330.95,517.17,334.19,516.92,337.12,518.71,334.95,518.01,337.64,522.36,342.82,521.32z"/>
		<path id="SJ" title="Svalbard and Jan Mayen" class="land" d="M150.44,273.86,149.46,273.53,154.55,267.63,156.85,266.84,156.85,269.68,150.44,273.86zM340.22,193.45,339.41,194.42,338.19,192.95,337.81,190.35,339.98,190.25,340.22,193.45zM356.32,71.08,359.25,71.72,360.97,83.42,365.62,82.63,368.74,86.01,366.72,88.02,366.48,91.16,370.3,94.91,374.03,94.16,378.5,98.7,373.3,101.82,370.65,107.95,368.26,110.49,366.38,110.34,364.36,113.7,362.69,113.98,361.83,112.47,363.57,105.11,361.63,104.59,359.34,106.74,351.74,108.03,351.37,104.74,353.57,103.04,356.62,93.36,352.46,88.96,349.04,80.18,349.26,77.05,347.99,77.29,347.02,75.08,356.32,71.08zM391.8,69.26,389,66.81,388.97,63.68,392.69,67.59,391.8,69.26zM286.54,70.57,286.62,72.92,287.71,72.68,290.42,76.48,292.38,83.27,291.36,83.53,288.81,78.09,285.67,75.57,281.88,60.46,284.59,62.43,286.54,70.57zM406.43,60.14,410.8,60.4,408.2,62.24,402.71,61.01,399.63,63.05,398.63,62.23,402.82,58.2,405.07,58.07,406.43,60.14zM323.84,23.62,325.05,21.6,326.75,22.31,330.9,27.7,331.71,31.33,329.78,43.16,334.69,35.05,337.5,41.67,336.58,47.68,339.35,51.45,342.05,50.79,343.8,51.82,344.77,55.05,346.25,54.32,346.58,51.86,349.6,53.26,350.65,54.95,348.86,57.7,354.84,66.11,352.87,68.32,343.31,70.61,339.12,80.41,338.71,88.23,334.97,90.07,334.02,104.32,329.47,109.9,326.3,120.59,325.7,132.15,323.26,134.47,315.48,125.45,312.64,119.5,307.53,114.97,305.03,106.52,305.54,104.78,307.61,104.29,309.75,106,311.27,100.85,325.5,97.39,324.69,94.18,318.94,95.81,315.74,95.11,310.77,98,305.67,98.23,303.66,95.6,302.91,89.97,304.64,88.1,307.13,90.72,306.74,88.57,314.1,83.66,316.5,83.44,317.08,80.14,325.29,78.72,326.43,77.12,323.43,77.46,321.56,74.21,323.81,68.76,322.11,69.01,318.16,74.56,314.61,75.23,313.51,71.31,314.39,65.05,311.91,69.9,309.71,66.78,308.21,68.35,307.97,74.58,309.36,77.21,305.81,82,299.34,83.11,293.33,71.11,290.69,68.39,290.65,62.94,287.32,58.79,288.54,57.64,293.44,60.4,294.31,58.69,291.47,56.15,291.45,46.56,288.76,46.9,288.37,51.66,287.14,53.17,286.26,52.44,283.09,38.22,282.71,29.29,283.95,27.83,285.87,30.85,286.54,28.28,289.59,26.92,293.53,31,293.48,27.1,296.67,28.62,303,25.37,304.49,27.06,303.57,30.92,298.59,32.05,295.33,36.39,300.58,36.19,300.91,39.67,304.78,44.85,305.33,35.78,309.06,27.75,312.15,32.42,316.95,50.84,320.85,57.89,317.3,32.18,320.19,18.09,322.07,19.21,323.84,23.62zM429.86,15.36,423.48,16.84,422.83,15.8,433.72,11.03,437.3,11.48,429.86,15.36zM337.01,8.15,335.55,10.36,333.1,8.66,333.98,5.84,337.01,8.15zM351.53,10.18,355.92,10.46,356.91,13.78,360.91,18.1,361.99,4.07,365.75,1.16,367.82,3.14,366.46,12.68,370.33,11.91,372.11,8,374.01,8.06,374.43,5.76,376.56,8.75,377.72,8.16,384.8,13.15,391.7,13.75,393.64,17.7,393.98,23.62,385.94,34.61,383.48,42.54,380.14,44.88,377.48,43.94,372.08,50.12,365.04,48.81,363.64,45.24,364.79,42.21,358.36,43.34,351.28,42.73,350.61,41.12,346.35,39.35,343.29,35.58,344.28,33.99,348.81,34.02,350.76,29.66,346.31,28.52,341.44,30.49,336.89,29.19,333.73,22.75,337.78,18.59,334.33,17.69,331.45,14.41,337.26,12.42,341.06,15.46,342.36,13.62,339.95,6.92,343.81,11.09,343.69,1,347.9,4.12,351.53,10.18z"/>
		<path id="NO" title="Norway" class="land" d="M383.11,267.59,385.53,268.37,386.8,270.63,383.09,271.35,381.29,269.44,383.11,267.59zM418.71,294.98,418.65,299.73,414.06,297.85,413.44,301.76,408.73,304.34,405.88,309.57,405.08,306.64,408.36,300.99,407.06,297.16,397.68,289.45,393.5,292.57,389.44,292.4,386.39,296.77,384.21,310.17,378.77,317.56,371.45,313.62,367.87,316.53,361.72,315.22,356.22,304.8,352.66,305.94,352.66,309.2,349.67,309.29,346.27,309.59,347.83,312.82,345.27,318.51,347.1,319.69,345.28,321.91,334.05,318.26,331.45,329,327.46,326.5,323.82,330.26,322.4,335.16,319.4,338.57,321.26,345.03,314.65,354.69,315.06,357.78,308.72,360.73,308.3,374.3,302.71,385.75,305.59,387.59,306.02,392.11,304.8,394.56,299.7,393.62,296.93,394.78,292.77,400.94,291.59,405.53,293.64,420.35,292.64,428.45,297.52,433.66,296.35,437.75,293.57,438.54,295.56,446.15,294.87,450.82,291.13,454.09,289.44,457.71,290.23,461.72,289.18,466.49,288.03,466.71,287.47,465.05,283.74,463.11,282.13,455.42,279.33,465.4,277.06,466.07,275.14,464.05,275.81,465.9,265.76,476.56,261.05,478.15,257.94,478.1,257.08,476.49,255.15,477.17,255.62,475.06,251.54,473.62,247.92,469.09,248.56,465.36,251.84,467.22,253.62,465.51,251.84,466.15,250.43,464.24,250.85,461.6,253.89,458.13,246.88,463.35,245.32,462.55,246.49,457.05,249.64,456.8,252.63,454.7,249.36,454.1,252.12,449.1,254.66,446.73,254.72,450.19,257.88,445.31,252.21,447.57,245.42,457.09,245.82,451.07,249.07,450.6,246.36,449.48,245.36,446.22,248.8,442.89,246.08,444.52,245.22,443.61,244.49,438.05,256.41,436.6,258.17,439.23,258.18,437.31,261.98,435.65,260.63,435.48,260.24,434.39,260.89,432.5,260.14,433.38,259.77,436.06,257.52,436.35,255.21,434.54,253.76,436.72,246.62,437.08,244.58,435.09,244.45,432.52,246.72,431.79,243.95,428.6,243.96,426.21,247.57,425.94,251.28,427.5,256.1,426.33,246.23,425.39,245.4,422.17,246.85,422.28,250.55,418.46,251.73,419.42,255.08,418.58,255.84,417.7,252.09,418.58,253.55,415.61,261.75,416.53,262.56,415.98,261.54,414.72,265.29,413.84,256.12,414,257.51,410.91,261.76,408.4,265.32,408.53,268.84,412.15,265.71,407.47,266.47,405.61,268.93,404.77,267.08,402.41,268.53,400.87,272.3,400.98,272.43,403.01,276.08,400.51,278.26,404.04,283.24,402.98,283,400.5,287.35,397.77,286.04,396.33,287.94,394.73,286.92,394.03,284.28,395.99,284.42,398.3,278.49,402.2,275.2,399.27,281.93,388.3,289.12,382.09,286.85,383.02,288.15,379.52,292.67,376.27,293.66,377.76,296.57,375.7,297.76,373.69,294.4,376.19,292.41,373.31,296.23,364.5,298.55,363.61,296.87,361.22,302.87,359.89,305.29,357.92,299.13,359.04,299.75,352.13,302.51,349.51,304.79,349.51,302.72,347.58,305.8,343.92,314.6,342.48,308.04,341.28,311.54,335.96,315.8,339.93,316.46,336.89,313.48,335.47,313.85,332.57,310.82,334.38,310.45,331.79,312.71,328.86,315.99,329.3,313.93,327.13,318.59,324.24,320.64,330.5,321.18,326.72,319.91,322.63,321.15,321.3,324.95,321.94,329,320.63,328.14,319.61,322.48,319.9,322,318.68,327.91,313.74,330.02,308.1,332.69,307.03,333.76,301.04,337.8,304.03,336.15,300.65,338.69,299.29,340.08,295.67,343.37,294.56,343.07,301.93,345.22,294.18,347.67,291.81,347.76,298.22,346.21,303.52,348.76,299.66,350.46,300.08,349.07,296.75,349.67,292.43,353.32,292.91,355.14,290.47,358.79,293.98,357.63,289.43,354.62,286.11,360.43,284.6,361.12,285.49,363.57,283.28,368.08,291.06,368.25,285.83,372.69,281.06,375.26,276.66,374.2,274.12,377.58,270.36,380.95,273.77,382.1,272.36,384.34,273.57,379.13,286.41,379.46,288.58,380.59,288.04,390.36,271.78,389.84,282.57,392.57,280.53,393.88,275.8,396.32,274.58,394.22,271.63,396.66,268.64,402.02,271.05,401.58,274.14,398.69,277.15,401.21,277.36,400.67,285.81,404.98,273.35,406.8,273.41,411.08,277.79,413.29,276.64,414.28,279.89,416.86,280.28,419.09,282.75,419.21,285.29,414.62,288.27,404.64,287.86,410.16,291.19,410.79,295.74,413.44,296.26,414.45,293.44,415.73,296.17,416.11,294.76,418.71,294.98zM368.66,274.34,364.54,279.92,361.37,280.46,358.92,277.58,365.45,276.48,367.07,274.34,368.66,274.34zM372.55,279.4,370.52,279.51,370.94,275.74,372.96,277.71,372.55,279.4zM369.84,279.76,369.38,282.61,366.76,285.13,365.3,281.88,369.38,278.39,369.84,279.76zM343.92,286.44,346.05,288.19,345.52,289.23,344.01,289.21,342.78,285.46,343.92,286.44zM340.46,289.42,342.84,290.36,341,294.26,338.8,295.44,337.3,298.95,332.88,299.36,334.36,295.28,336.55,295.01,336.63,292.88,339.09,289.99,339.64,285.9,340.46,289.42zM350.73,288.96,348.61,289.22,348.8,286.71,350.78,286.39,350.73,288.96zM412.55,294.72,411.27,295.29,411.74,292.59,413.22,293.91,412.55,294.72zM328.66,298.61,332.04,300.37,331.68,306.24,328.56,306.26,325.83,309.72,324,308.65,325.29,303.12,327.7,302.75,326.82,300.9,328.66,298.61zM316.92,318.15,320.75,312.3,322.03,316.83,318.37,321.07,314.75,322.71,313.68,321.59,309.3,324.79,306.8,324.93,309.01,321.11,312.44,320.35,314.58,317.14,315.05,309.16,318.86,304.26,316.92,318.15zM313.2,311.05,314.47,314.03,313.3,317.13,307.79,316.27,308.79,313.37,310.47,313.89,310.94,311.6,312.05,311.96,312.06,309.97,313.2,311.05zM304.21,323.57,305.72,324.42,299.87,328.45,300.35,325.48,304.21,323.57zM298.14,330.63,297.14,331.57,298.79,327.09,298.14,330.63zM294.42,362.16,295.14,359.38,295.79,360.85,294.42,362.16zM295.02,364.5,294.8,363.26,296.62,362.69,295.02,364.5zM291.38,369.02,290.1,369.38,290.25,368.09,291.4,367.8,291.38,369.02zM286.41,381.26,283.1,381.19,285,379.47,286.41,381.26zM267.82,399.86,266.58,399.56,269.8,397.77,269.94,399.31,267.82,399.86zM265.34,404.84,263.33,403.69,265.14,402.84,265.34,404.84zM244.16,437.4,243.08,437.43,243.5,435.88,244.16,437.4zM245.01,448.1,245.04,449.71,244.15,446.19,245.01,448.1z"/>
		<path id="ME" title="Montenegro" class="land" d="M340.06,633.95,347.8,640.45,345.85,641.07,345.91,643.01,344.06,643.66,343.16,642.27,340.64,646.42,341.05,649.17,335.5,644.06,334.95,642.9,335.11,638.89,337.74,635.68,338.93,636.18,338.41,634.01,340.06,633.95z"/>
		<path id="MK" title="Macedonia" class="land" d="M361.27,645.14,365.72,650.33,365.13,653.95,363.02,655.71,358.91,655.79,356.1,658.12,351.98,658.29,348.78,654.52,349.3,649.13,350.72,647.34,356.01,645.74,361.27,645.14z"/>
		<path id="MD" title="Moldova" class="land" d="M400.81,615.88,399.88,614.45,400.99,604.35,399.86,601.03,392.51,589.3,390.07,588.25,396.34,586.04,406.96,591.22,407.02,595.97,409.74,598.14,409.96,601.17,412.02,602.5,413.73,606.48,405.83,606.13,405.76,610.1,402.74,615.23,400.81,615.88z"/>
		<path id="LV" title="Latvia" class="land" d="M395.01,484.37,398.22,487.3,396.95,492.84,398.36,492.75,400.07,496.52,400.37,501.41,396.52,505.55,392.99,505.17,389.9,507.12,383.63,501.87,379.64,500.72,378.09,498.16,373.24,499.95,359.53,498.22,352.53,502.29,352.7,493.11,357.13,483.83,362.69,481.9,367.63,489.83,370.06,491.3,375.01,487.84,374.6,480.05,381.07,477.79,385.84,480.46,389.01,484.16,392.41,483.35,395.01,484.37z"/>
		<path id="LU" title="Luxembourg" class="land" d="M251.96,569.09,254.46,572.46,253.49,576.05,249.76,575.17,249.45,571.2,251.01,568.61,251.96,569.09z"/>
		<path id="LT" title="Lithuania" class="land" d="M389.9,507.12,388.98,510.99,391.13,511.81,384.95,515.97,382.85,522.8,384.21,524.81,382.6,524.78,382.27,523.25,374.57,527.83,368.96,527.3,368.19,524.31,364.12,522.51,364.51,516.53,362.78,514.33,353.81,511.91,352.53,502.29,359.53,498.22,373.24,499.95,378.09,498.16,379.64,500.72,383.63,501.87,389.9,507.12zM351.93,511.74,351.54,511.65,352.99,507.73,351.93,511.74z"/>
		<path id="LI" title="Liechtenstein" class="land" d="M275.29,600.25,274.67,600.2,274.94,598.14,275.29,600.25z"/>
		<path id="KV" title="Kosovo" class="land" d="M356.01,645.74,350.72,647.34,349.3,649.13,348.75,645.96,345.91,643.01,345.85,641.07,347.8,640.45,350.88,636.46,354.85,641.15,357.29,641.9,356.01,645.74z"/>
		<path id="JE" title="Jersey" class="land" d="M197.16,578.34,195.69,578.9,195.8,577.98,197.16,578.34z"/>
		<path id="IS" title="Iceland" class="land" d="M106.05,359.08,112.43,356.51,108.92,360.8,111.74,362.55,110.87,366.77,113.8,366.39,113.25,369.86,115.32,368.77,119.02,370.77,117.76,373.44,119.34,378.04,117.43,379.24,116.14,383.23,113.85,383.17,112.21,388.34,104.1,392.06,98.66,396.84,90.74,399.17,89.86,401.86,85.09,403.8,74.69,401.55,72.7,399.56,73.24,397.76,71.64,398.8,68.57,395.7,58.16,397.42,57.83,393.5,59.12,394.91,61.29,394.18,66.17,388.91,62.19,389.93,62.89,386.79,65.31,385.04,61.84,386.51,59.41,382.39,53.48,381.92,50.3,383.27,48.9,381.3,57.24,378.39,63.28,378.35,64.03,376.13,62.28,377.13,59.12,375.98,63.6,371.94,56.47,369.77,49.75,372.58,45.87,370.67,47.4,369.21,50.04,370.46,48.45,366.57,51.67,368.16,53.89,367,50.21,365.37,52.28,364.87,50.58,362.59,52.89,362.48,51.78,361.08,52.77,359.87,55.39,361.45,55.69,363.18,58.11,362.45,58.4,365.07,59.58,364.4,59.55,361.72,56.17,359.34,59.29,358.45,55.03,357.23,56.19,355.71,59.68,355.7,66.55,362.46,66.76,367.14,64.85,367.44,68.41,374.86,70.61,368.86,72.96,369.93,74.63,361.22,79.46,366.71,80.18,361.63,83.8,359.82,88.54,367.26,87.5,360.27,90.12,360.5,92.53,363.47,95.2,359.51,97.33,360.8,99.7,359.62,99.33,355.42,101.29,354.13,103.07,354.27,106.05,359.08z"/>
		<path id="IE" title="Ireland" class="land" d="M162.13,513.94,159.89,517.74,157.46,518.55,158.52,519.75,156.07,521.84,159.51,524.96,161.41,525.08,163.55,521.93,165.96,525.94,168.87,525.59,167.99,527.28,170.15,538.74,167.21,545.19,168.15,546.27,164.34,547.23,163.83,546.24,156.47,550.88,154.11,550.19,154.12,552.11,148.13,554.43,144.5,554.59,146.22,552.36,142.58,553.32,146.09,550.35,141.09,551.17,144,547.63,140.99,546.71,144.92,546.24,144.02,544.54,145.87,542.96,151.58,541.49,150.19,540.65,148.94,541.99,143.95,542.71,148.11,536.83,150.6,535.6,142.77,533.29,142.6,531.75,145.27,531.12,144.05,529.72,146.23,528.83,143.97,528.17,144.36,525.52,142.76,524.82,143.01,523.65,153.19,523.84,152.66,522.62,155.96,519.22,151.72,518.75,154.32,516.32,155.01,513.3,159.1,512,159.16,515.36,161.52,510.71,163.86,512.22,162.13,513.94zM143.74,527.6,141.6,526.87,143.41,526.57,143.74,527.6z"/>
		<path id="IM" title="Isle of Man" class="land" d="M181.03,524.48,178.52,525.77,180.95,521.93,181.03,524.48z"/>
		<path id="HU" title="Hungary" class="land" d="M359.84,586.78,364.86,591.4,358.95,595.82,353.04,607.85,347.11,609.53,342.88,608.95,338.11,611.25,334.42,612.97,330.71,612.61,322.01,605.73,320.45,602.22,319.16,602.16,321.59,600.75,321.52,596.86,323.09,595.51,321.38,594.13,325.72,593.8,326.27,590.81,330.41,593.17,336.89,593,337.34,590.86,342.96,588.62,345.15,589.39,348.78,585.54,355.26,585.29,357.08,587.37,359.84,586.78z"/>
		<path id="HR" title="Croatia" class="land" d="M322.01,605.73,330.71,612.61,334.42,612.97,338.11,611.25,338.78,616.37,341.44,618.15,339.17,618.87,338.79,621.42,336.47,619.44,330.75,619.44,324.73,617.54,320.51,620.09,317.11,618.47,316.76,622.4,320.56,628.44,327.12,634.76,329.22,639.44,324.62,635.25,318.44,634.07,313.05,627.99,312.63,627.2,314.97,627.06,311.67,623.94,310.82,619.41,308.77,617.34,307.17,616.96,304.13,621.72,302.22,615.24,307.56,615.58,308.9,613.89,310.41,615.61,314.09,615.72,313.67,613.17,316.19,611.92,316.08,608.64,320.07,606.97,320.7,605.39,322.01,605.73zM310.52,620.4,308.1,619.42,308.91,618.04,310.52,620.4zM329.77,639.81,334.95,642.9,335.5,644.06,325.58,638.73,329.77,639.81zM329.37,640.99,330.29,641.62,327.59,640.79,329.37,640.99z"/>
		<path id="GR" title="Greece" class="land" d="M388.06,650.54,390.11,653.37,386.16,659.38,379.87,657,370.83,659.2,371.53,662.11,374.74,664.5,370.6,662.89,372.07,666.09,368.56,663.47,369.92,666.46,365,662.27,365.17,660.59,363.2,661.43,362.94,665.47,367.9,672.99,366.73,673.62,366.78,672.27,365.16,671.84,366.14,674.17,362.79,675.64,367.4,677.42,372.59,681.89,372.56,685.82,369.07,682.79,365.94,684.12,368.99,687.84,366.78,688.73,363.84,686.97,366.77,696.17,363.79,693.28,361.84,695.94,359.5,691.3,358.23,693.75,356.15,690.87,356.79,688.28,353.06,684.01,354.94,681.4,357.78,680.28,365.16,683.44,366.7,681.58,361.8,679.33,355.4,680.34,354.45,678.91,353.45,680.13,350.66,675.58,352.97,675.39,353.02,674.24,350.29,674.2,345.49,668.34,347.15,668.61,347.58,665.97,349.91,664.76,352.43,660.31,351.98,658.29,356.1,658.12,358.91,655.79,363.02,655.71,365.13,653.95,375.72,651.99,380.86,654.78,385.39,654.17,386.81,653.51,386.48,650.65,388.06,650.54zM377.64,660.37,375.9,660.09,376.63,658.8,377.64,660.37zM382.11,665.94,381.57,667.47,379.58,667.09,379.56,665.8,382.11,665.94zM346.01,670.75,343.1,667.83,344.98,667.77,346.01,670.75zM388.66,671.64,389.91,674.08,389.06,674.73,386.63,673.8,387.74,672.79,386.39,673.67,384.85,672.77,388.66,671.64zM368.49,674.86,373.29,677.53,376.04,683.25,372.7,679.75,364.82,675.62,368.49,674.86zM350.11,677.87,349.22,678.1,350.16,675.84,350.11,677.87zM386.54,681.22,385.17,681,384.86,678.17,386.98,678.46,386.54,681.22zM349.61,679.81,350.61,682.48,347.86,681.55,349.61,679.81zM351.47,684.74,352.18,685.57,351,685.93,349.66,684.32,351.47,684.74zM391.46,684.69,393.01,685.56,389.82,685.43,391.46,684.69zM382.84,691.82,381.6,690.96,382.7,689.89,382.84,691.82zM398.32,700.49,397.46,698.48,400.94,696.29,398.32,700.49zM371.43,703.75,373.55,703.25,374.81,705.2,384.08,705.29,384.5,707.14,388.06,705.56,387.02,708,377.82,708.69,375.55,706.84,369.69,706.04,369.53,703.75,370.66,702.76,371.43,703.75z"/>
		<path id="GG" title="Guernsey" class="land" d="M193.83,575.62,193.59,576.3,192.98,576.07,193.83,575.62z"/>
		<path id="GE" title="Georgia" class="land" d="M523.53,648.97,521.86,651.08,525.16,654.4,524.23,656.17,515.79,652.94,513.9,654.36,503.38,656,498.76,651.78,496.83,653.03,490.38,652.33,492.09,648.26,490.24,641.99,480.07,635,481.22,633.61,484.58,633.94,490.86,636.85,498.81,637.31,505.69,641.19,505.99,642.79,510.57,641.17,512.35,642.38,513.03,641.1,518.65,643.46,518.2,646.13,523.53,648.97z"/>
		<path id="FR" title="France" class="land" d="M249.76,575.17,253.49,576.05,256.13,579.07,260.94,579.15,265.55,580.99,262.06,589.29,262.06,594.94,260.22,596.53,257.7,596.33,250.97,608.5,252.52,608.72,254.06,606.4,256.28,606.55,258.05,611.3,256.5,613.09,258.89,616.54,255.45,619.53,257.86,621.82,257.24,626.46,260.05,628.31,262.2,628.06,261.23,631.77,251.95,638.2,244.84,634.77,242.5,635.43,237.1,633.67,231.31,639.65,232.39,644.07,224.45,644.78,222.25,643.41,220.38,642.57,215.45,640.29,215.01,641.71,206.8,640.71,200.91,638.39,201.25,636.66,198.67,635.11,200.75,633.66,203.5,623.12,202.37,623.34,203.47,615.09,207.06,620.17,205.43,615.71,202.7,613.34,203.8,613.09,203.03,607.56,198.72,605.58,196.88,602.69,195.95,599.21,197.1,598.11,199.02,598.69,197.45,597.75,193.89,597.73,194.4,596.16,192.09,595.73,191.98,594.62,181.71,592.64,179.24,590.47,181.59,589.15,179.92,587.94,182.18,587.8,178.96,587.2,178.95,585.41,188.99,582.34,192.62,585.44,194.28,584.31,197.26,584.98,197.92,583.81,201.48,584.26,198.25,573.66,202.28,573.69,203.08,576.72,209.65,577.66,213.56,576.1,211.63,575.48,212.01,573.46,219.14,570.38,221.48,567.71,222.02,561.01,227.76,558.74,229.34,562.44,231.68,562.14,235.61,567.15,238.88,567.77,238.71,570.66,241.37,570.77,243.21,568.75,243.54,572.57,247.85,575.45,249.76,575.17zM202.82,611.51,202.58,612.36,201.4,610.1,202.82,611.51zM274.62,640.65,275.09,646.81,272.64,653.52,270.09,651.69,268.46,644.74,270.13,642.46,273.49,641.5,273.83,638.71,274.62,640.65z"/>
		<path id="FO" title="Faroe Islands" class="land" d="M167.6,420.74,166.67,421.51,166.6,419.33,167.6,420.74zM166.08,421.18,165.92,423.12,164.67,422.75,165.45,425.16,162.44,420.35,166.08,421.18zM162.34,422.46,162.81,423.79,161.04,423.39,160.75,422.45,162.34,422.46z"/>
		<path id="FI" title="Finland" class="land" d="M405.88,309.57,402.16,311.78,404.58,312.98,402.6,318.59,403.15,322,403.99,324.94,408.43,327.26,412.77,334.3,406.56,347.85,413.44,366.4,413.49,368.12,410.93,369.06,410.21,375.15,411.68,376.81,410.18,379.63,413.59,383.37,412.76,386.65,416.13,391.13,416.39,393.59,412.79,398.83,420.8,406.78,423.18,411.57,419.15,419.8,398.01,444.98,395.75,445.95,394.02,444.88,389.5,446.66,389.74,443.77,388.45,446.51,385.61,445.82,386.14,447.63,384.27,448.64,383.59,447.75,375.43,451.97,368.82,452.44,365.84,454.73,367.03,451.96,365.1,449.42,364.01,451.49,362.07,451.86,362.9,447.1,355.16,444.15,354.65,439.03,356.3,430.29,353.94,424.61,354.53,420.47,352.92,415.44,355.41,409.38,356.6,409.29,355.89,406.84,361.11,405.25,361.1,402.33,369.73,394.15,376.19,382.29,381.11,381.35,381.68,378.98,381.51,371.42,376.98,368.3,376.66,365.21,373.48,366.1,370.41,358.68,372.35,349.24,370.01,343.75,370.63,338.63,368.76,337.97,370,329.19,364.71,321.71,358.94,318.9,349.67,309.29,352.66,309.2,352.66,305.94,356.22,304.8,361.72,315.22,367.87,316.53,371.45,313.62,378.77,317.56,384.21,310.17,386.39,296.77,389.44,292.4,393.5,292.57,397.68,289.45,407.06,297.16,408.36,300.99,405.08,306.64,405.88,309.57zM378.14,379.27,376.33,379.47,376.31,378.45,378.97,378.25,378.14,379.27zM353.69,406.28,355.02,406.94,353.93,407.62,352.78,405.74,353.69,406.28zM355.26,445.07,354.24,445.75,353.73,443.82,355.26,445.07zM360.14,447.24,361.75,448.15,361.38,450.02,359.48,448.38,360.14,447.24zM357.83,450.36,356.9,450.71,357.37,449.57,357.83,450.36z"/>
		<path id="EE" title="Estonia" class="land" d="M399.46,459.15,400.39,460.6,395.56,468.3,396.02,475.59,397.88,480.05,395.01,484.37,392.41,483.35,389.01,484.16,385.84,480.46,381.07,477.79,374.6,480.05,375.99,473.89,373.2,475.02,370.86,473.8,369.12,469.97,370.28,468.3,368.6,466.56,369.02,462.96,372.99,461.69,374.99,459.3,382.15,458.66,382.6,457.09,392.47,459.6,398.65,460.08,399.46,459.15zM365.18,467.78,362.61,469.56,361.72,467.31,359.33,466.26,363.33,464.39,365.08,465.64,365.18,467.78zM368.01,471.37,366.43,469.96,367.93,470.1,368.01,471.37zM363.11,470.45,367.87,472.65,361.46,475.64,358.93,479.28,360.22,476.45,358.16,475.07,358.03,472.05,363.11,470.45z"/>
		<path id="ES" title="Spain" class="land"	d="M198.67,635.11,201.25,636.66,200.91,638.39,206.8,640.71,215.01,641.71,215.45,640.29,220.38,642.57,220.51,644.01,222.25,643.41,224.45,644.78,232.39,644.07,232.63,648.49,231,650.08,215.57,658.53,216.76,659.42,214.77,660.38,208.55,669.99,209.37,673.96,212.11,676.58,207.25,680.37,205.27,685.04,205.89,686.22,199.7,688.29,196.53,693.42,181.34,693.91,175.92,696.38,172.86,699.69,170.06,698.34,167.75,694.59,168.87,692.27,167.67,692.96,164.52,689.2,160.86,690.04,160.61,685.39,163.88,681.48,161.29,679.17,163.61,674.01,159.99,668.75,163.76,667.56,163.38,664.32,164.88,662.78,164.08,656.87,168.9,652.2,166.68,650.94,166.17,648.5,155.83,649.68,155.07,646.74,151.63,648.52,151.94,644.25,151.4,642.16,149.9,642.59,150.62,640.72,148.54,639.08,148.93,637.27,158.9,631.8,163.19,633.76,171.37,632.91,180.28,635.04,186.47,634.07,190.24,635.44,198.67,635.11zM239.68,667.18,236.71,665.24,239.22,665.51,239.68,667.18zM231.94,667.63,234.07,668.44,231.45,671.89,226.72,669.53,232.03,666.05,231.94,667.63zM220.49,675.2,218.99,675.33,221.29,673.45,220.49,675.2zM118.36,756.36,117.39,756.68,117.63,755.58,120.06,753.86,119.96,755.63,118.36,756.36zM90.61,759.56,89.98,756.87,91.34,757.79,90.61,759.56zM115.12,762.03,113.13,762.55,117.41,757.69,116.93,761.39,115.12,762.03zM100.72,760.42,98.54,763.26,96.87,760.73,102.14,758.93,100.72,760.42zM107.01,762.2,106.76,764.75,104.92,764.96,105.11,762.14,107.01,762.2zM90.25,764.76,89.6,766,88.42,765.13,90.25,764.76z"/>
		<path id="GB" title="United Kingdom" class="land" d="M203.58,563.08,202.32,564.16,200.22,563.34,201.91,562.2,203.58,563.08zM182.48,534.32,183.48,534.49,181.29,536.42,179.98,533.58,182.48,534.32zM168.87,525.59,165.96,525.94,163.55,521.93,161.41,525.08,159.51,524.96,156.07,521.84,158.52,519.75,157.46,518.55,159.89,517.74,162.13,513.94,167.13,512.18,170.09,513.32,172.24,517.16,171.15,519.21,173.15,518.95,173.9,520.85,172.55,520.27,172.98,523.48,170.21,526.02,168.87,525.59zM176.36,509.72,174.84,509.34,174.93,506.62,176.36,509.72zM169.47,503.97,169.96,506.79,168.28,507.84,168.41,505.87,167.03,506.77,167.22,505.44,169.47,503.97zM170.54,505.36,169.85,504.42,172.19,501.71,170.54,505.36zM171.83,498.97,168.22,499.59,169.4,497.19,168.41,495.71,171.95,497.19,171.83,498.97zM161.92,489.51,160.83,486.21,161.8,486.32,161.92,489.51zM169.36,484.66,169.42,487.04,172.54,487.81,170.68,490.38,170.1,488.45,168.16,488.43,165.21,485.44,167.93,482.62,169.36,484.66zM162.21,482.42,162.37,484.3,160.13,483.44,162.21,482.42zM169,473.77,166.6,477.23,167.47,478.14,163.71,481.58,163.04,480.77,164.56,479.38,163.02,476.09,165.44,476,165.1,474.56,168.74,471.98,169,473.77zM189.81,471.81,189.11,474.31,183.88,478.93,183.57,480.29,184.77,480.71,182.9,483.74,187.83,482.1,196.78,482.18,198.76,485.04,193.29,496.33,188.46,498.74,191.32,498.33,192.74,500.08,188.1,502.8,185.23,501.99,190.22,503.72,193.24,502.81,199.6,508.28,202.45,518.48,210.19,525.26,209.37,526.36,211.53,531.06,208.93,529.61,206.31,529.76,208.78,530.12,212.58,534.16,213.15,536.13,211.06,538.98,212.64,540.06,214.52,538.29,217.86,538.38,221.91,540.67,221.47,547.67,219.06,549.29,218.76,551.12,215.82,551.92,216.76,553.64,213.61,554.78,220.29,555.88,220.17,557.83,217.22,560.58,212.13,562.31,201.21,560.88,200.54,562.48,197.07,562.71,197.04,564.01,190.55,562.8,187.82,563.7,185.97,567.84,182.5,566.23,178.9,567.31,176.27,569.96,172.88,569.83,182.54,557.76,189.63,557.59,194.36,551.8,188.57,555.59,184.54,553.42,182.23,553.66,183.19,552.68,181.21,551.8,177.73,553.04,175.94,551.8,175.84,549.53,182.34,545.93,183.94,543.02,183.12,538.87,179.21,540.09,182,536.3,185.4,534.47,189.89,535,190.11,533.13,192.23,534.44,190.11,532.15,191.58,525.06,189.43,525.14,186.56,520.1,187.41,517.68,190.3,515.57,186.84,515.64,184.09,517.58,178.3,516.82,177.67,518.65,176.85,517.81,175.91,515.19,179.25,509.1,177.94,504.65,179.87,503.88,178.12,502.52,178.42,501.23,175.53,504.5,176.5,500.75,174.31,503.19,173.32,510.43,172.15,511.08,173.47,500.11,175.8,493.92,172.68,496.69,169.43,494.55,172.15,492.75,171.27,492.14,173.29,488.06,171.72,486.24,173.15,484.13,172.05,482.61,172.97,479.92,176.01,479.92,174.29,477.52,174.79,475.37,177.02,475.06,176.96,471.16,180.89,471.85,188.8,470.08,190.19,470.27,189.81,471.81zM190.16,465.14,191.94,466.74,188.31,465.9,188.45,463.81,190.16,465.14zM201.94,444.96,203.66,446.23,202,453.89,202.06,450.19,199.55,448.44,201.49,447.75,200.17,445.55,201.57,443.97,201.94,444.96z"/>
		<path id="DK" title="Denmark" class="land" d="M276.37,517.06,269.16,516.15,268.79,510.09,265.54,507.93,265.75,495.77,269.17,497.13,270.63,494.2,271.83,493.48,272.7,494.61,273.1,490.8,271.33,490.74,269.85,494.32,267.8,495.07,266.56,492.76,268.81,489.56,274.3,488.78,277.86,483.7,282.23,481.74,280.02,495.61,284.36,497.77,283.19,500.22,280.27,500.57,279.35,504.76,277.47,505.03,278.28,506,275.36,509.2,275.9,511.88,274.44,514.56,276.32,515.4,276.37,517.06zM285.21,487.81,284,487.69,286.03,486.93,285.21,487.81zM295.42,505.72,293.04,509.51,294.37,511.65,292.2,512.81,291.93,517.18,290.66,517.68,289.26,512.82,286.78,512.62,284.71,506.48,287.03,506.11,289.08,503.66,290.38,506.76,290.69,503.52,293.07,501.71,295.49,502.37,295.42,505.72zM296.08,507.97,295.3,508.45,295.63,506.97,296.08,507.97zM282.46,507.81,283.41,513.45,281.1,514.45,278.04,513.1,277.18,508.93,282.46,507.81zM312.39,514.76,309.67,513.82,310.22,511.53,312.69,513.32,312.39,514.76zM283.06,517.94,282.31,516.76,284.53,513.18,283.06,517.94zM278.53,516.35,276.81,516.12,276.64,514.21,278.53,516.35zM295.29,515.42,292.39,516.02,293.44,514.27,295.29,515.42zM287.29,516.29,289.84,517.28,290.01,518.77,287.94,519.36,285.09,517.68,285.25,515.72,287.29,516.29z"/>
		<path id="DE" title="Germany" class="land" d="M306.49,527.18,306.5,528.09,304.56,527.99,303.9,525.15,306.49,527.18zM303.11,522.21,303.09,523.38,299.61,522.87,300.6,518.56,302.76,520.16,303.11,522.21zM276.37,517.06,278.27,518.83,277.23,521.17,283.05,522.98,284.95,522.25,283.88,526.5,287.55,527.24,295.47,521.23,298.52,521.88,301.35,524.99,303.21,524.85,304.16,528.29,306.81,529.7,307.83,535.69,305.93,539.28,309.24,543.17,310.13,548.08,309.12,550.8,311.91,557.07,310.52,561.29,307.22,559.38,307.55,560.86,297.94,566.09,295.29,566.23,293.46,568.46,292.2,567.19,295.04,571.45,294.22,573.08,296.18,576.45,303.82,583.1,303.2,585.39,301.61,584.98,300.85,587.22,296.71,589.79,298.42,596.08,293,593.69,285.14,596.93,281.08,595.35,279.35,598.06,277.93,595.81,274.91,595.62,268.5,593.12,267.7,594.91,262.06,594.94,262.06,589.29,265.55,580.99,260.94,579.15,256.13,579.07,253.49,576.05,254.46,572.46,251.96,569.09,253.63,567.04,251.23,562.44,251.68,560.68,250.21,559.46,252.05,558.21,252.51,554.95,250.83,551.13,256.56,549.33,256.05,548.1,258.15,544.8,256.22,543.88,255.96,542.18,258.13,541.81,259.24,534.76,258.41,532.55,259.83,530.24,264.71,530.14,265.38,532.67,266.89,531.1,267.98,533.5,268.81,528.04,272.77,528.26,276.66,531.68,273.48,528.22,271.23,527.45,270.75,523.62,268.99,523.22,271.09,520.41,269.16,516.15,276.37,517.06zM266.72,517.51,267.69,514.37,267.2,516.19,268.89,516.29,266.72,517.51z"/>
		<path id="CZ" title="Czech Republic" class="land" d="M310.52,561.29,311.76,559.63,318.59,563.92,320.44,563.45,321.36,564.32,319.95,565.91,322.84,569.29,325.2,567.87,324.47,565.87,328.07,567.69,330,567.13,329.5,569.14,335.8,571.62,337.62,575.45,333.09,578.07,330.38,581.86,326.19,582.34,324.96,584.81,322.2,582.8,318.92,583.22,312.25,580.74,309.72,584.81,305.4,584.77,303.82,583.1,296.18,576.45,294.22,573.08,295.04,571.45,292.2,567.19,293.46,568.46,295.29,566.23,297.94,566.09,307.55,560.86,307.22,559.38,310.52,561.29z"/>
		<path id="CH" title="Switzerland" class="land" d="M274.91,595.62,274.94,598.14,274.67,600.2,275.29,600.25,279.02,602.28,280.47,600.97,281.17,602.15,281.02,605.24,278.7,604.75,278.98,608.28,273.13,605.97,271.54,612.08,267.73,608.2,267.49,606.25,263.22,611.34,258.05,611.3,256.28,606.55,254.06,606.4,252.52,608.72,250.97,608.5,257.7,596.33,260.22,596.53,262.06,594.94,267.7,594.91,268.5,593.12,274.91,595.62z"/>
		<path id="BY" title="Belarus" class="land" d="M400.37,501.41,404.73,503.83,406.32,502.88,408.64,503.87,409.36,506.92,414.42,505,418.96,508.28,418.31,511.41,419.43,514.43,418.23,517.56,420.61,519.4,420.09,520.95,422.3,524.36,425.15,526.26,424.66,528.78,429.35,530.11,431.08,533.21,427.28,536.9,422.4,535.73,421.33,537.74,423.39,540.61,424.73,547.87,420.12,548.13,417.94,550.12,416.52,556.94,413.93,554.65,408.45,555.68,406.8,553.03,404.3,555.13,400.61,553.24,397.35,554.65,393.59,551.68,384.46,549.81,374.87,550.42,369.77,554.22,370.09,548.53,366.87,545.83,371.86,540.49,368.96,527.3,374.57,527.83,382.27,523.25,382.6,524.78,384.21,524.81,382.85,522.8,384.95,515.97,391.13,511.81,388.98,510.99,389.9,507.12,392.99,505.17,396.52,505.55,400.37,501.41z"/>
		<path id="BA" title="Bosnia and Herzegovina" class="land" d="M338.79,621.42,341.09,621.31,339.54,626.23,342.68,629.2,340.4,629.93,342.08,632.93,340.06,633.95,338.41,634.01,338.93,636.18,337.74,635.68,335.11,638.89,334.95,642.9,329.77,639.81,329.22,639.44,327.12,634.76,320.56,628.44,316.76,622.4,317.11,618.47,320.51,620.09,324.73,617.54,330.75,619.44,336.47,619.44,338.79,621.42z"/>
		<path id="BG" title="Bulgaria" class="land" d="M403.32,632.01,402.51,635.28,400.28,635.22,398.63,641.16,395.9,643.74,399.47,648.26,396.24,648.7,394.28,647.14,390.05,648.3,388.06,650.54,386.48,650.65,386.81,653.51,385.39,654.17,380.86,654.78,375.72,651.99,365.13,653.95,365.72,650.33,361.27,645.14,362.48,643.98,362.1,640.31,365.54,637.14,361.45,631.64,363.71,627.38,365.88,628.87,365.15,631.15,382.51,632.67,387.36,629.53,393.22,628.04,403.32,632.01z"/>
		<path id="BE" title="Belgium" class="land" d="M249.63,559.14,249.47,559.87,248.63,561.54,251.23,562.44,253.63,567.04,251.96,569.09,251.01,568.61,249.45,571.2,249.76,575.17,247.85,575.45,243.54,572.57,243.21,568.75,241.37,570.77,238.71,570.66,238.88,567.77,235.61,567.15,231.68,562.14,229.34,562.44,227.76,558.74,233.32,555.73,233.88,557.15,237.04,557.56,239.22,555.63,244.64,554.74,249.63,559.14z"/>
		<path id="AZ" title="Azerbaijan" class="land" d="M537.96,649.39,543.92,658.74,550.04,663.34,544.55,664.09,543.28,671.47,539.86,675.89,539.96,679.36,538.1,679.57,534.08,675.76,536.07,674.34,534.81,672.41,536.27,671.04,534.08,668.56,523.94,675.31,523.87,669.68,517.8,665.99,519.86,665.57,520.39,663.74,516.96,661.11,517.85,658.32,514.37,656.28,515.16,655.64,513.9,654.36,515.79,652.94,524.23,656.17,525.16,654.4,521.86,651.08,523.53,648.97,525.68,649.68,529.51,654.44,532.7,655.18,537.96,649.39zM521.4,675.55,517.13,674.44,512.66,668.85,512.33,668.39,514.11,667.85,515.06,669.55,519.18,669.76,521.4,675.55z"/>
		<path id="AT" title="Austria" class="land" d="M324.96,584.81,324.37,586.96,326.27,590.81,325.72,593.8,321.38,594.13,323.09,595.51,321.52,596.86,321.59,600.75,319.16,602.16,318.25,603.99,311.08,604.69,308.77,606.7,303.04,605.53,294.21,603.74,292.73,600.01,286.5,601.06,284.81,603.01,281.17,602.15,280.47,600.97,279.02,602.28,275.29,600.25,274.94,598.14,274.91,595.62,277.93,595.81,279.35,598.06,281.08,595.35,285.14,596.93,293,593.69,298.42,596.08,296.71,589.79,300.85,587.22,301.61,584.98,303.2,585.39,303.82,583.1,305.4,584.77,309.72,584.81,312.25,580.74,318.92,583.22,322.2,582.8,324.96,584.81z"/>
		<path id="AM" title="Armenia" class="land" d="M523.94,675.31,521.4,675.55,519.18,669.76,515.06,669.55,514.11,667.85,512.33,668.39,509.11,665.44,504.91,664.68,504.26,661.55,505.29,659.45,503.38,656,513.9,654.36,515.16,655.64,514.37,656.28,517.85,658.32,516.96,661.11,520.39,663.74,519.86,665.57,517.8,665.99,523.87,669.68,523.94,675.31z"/>
		<path id="AX" title="Aland Islands" class="land" d="M345.41,447.5,347.23,448.72,344.13,451.16,343.37,448.64,344.46,449.28,344.29,446.97,345.41,447.5zM343.21,449.73,342.36,450.3,342.46,448.96,343.21,449.73z"/>
		<path id="AL" title="Albania" class="land" d="M345.91,643.01,348.75,645.96,349.3,649.13,348.78,654.52,351.98,658.29,352.43,660.31,349.91,664.76,347.58,665.97,347.15,668.61,345.49,668.34,344.48,665.41,340.92,662.21,341.84,662.23,341.02,659.94,342.62,651.23,341.05,649.17,340.64,646.42,343.16,642.27,344.06,643.66,345.91,643.01z"/>
		<path id="IT" title="Italy" class="land" d="M315.68,681.2,312.47,687.68,313.79,691.08,312.56,694.17,308.45,693.24,306.81,691.16,295.9,686.53,294.53,684.62,296.54,681.52,297.67,682.79,300.29,681.45,303.64,683.24,315.68,681.2zM275.64,658.01,276.81,661.39,275.17,673.06,271.76,672.43,271.16,674.81,269.01,675.13,267.46,672.72,268.34,667.2,266.16,657.73,268.5,658.29,272.92,654.66,275.64,658.01zM280.78,640.17,280.94,641.5,279,641.23,280.78,640.17zM303.04,605.53,300.88,608.05,302.59,608.87,301.56,610.5,304.22,614.3,303.18,614.56,302.56,612.8,299.72,612.79,293.44,615.92,293.11,617.88,295.12,620.48,293.26,622.81,294.26,627.51,302.13,633.59,305.13,641.71,308.71,645.77,312.94,648.58,319.65,648.92,317.87,652.38,331.71,660.02,335.11,663.85,334.33,667.36,331.1,663.33,324.79,661.76,322.05,668,326.05,671.2,326.45,674.52,322.69,676.22,322.21,679.59,318.92,683.58,316.15,682.79,319.95,675.01,316.47,665.88,311.47,663.69,310.22,659.9,307.35,660.52,308.17,659.37,305.36,658.63,303.27,654.85,298.92,654.78,289.15,645.38,285.55,644.2,285.99,643.12,281.59,639.17,279.39,630.09,269.8,625.64,264.68,630.75,261.23,631.77,262.2,628.06,260.05,628.31,257.24,626.46,257.86,621.82,255.45,619.53,258.89,616.54,256.5,613.09,258.05,611.3,263.22,611.34,267.49,606.25,267.73,608.2,271.54,612.08,273.13,605.97,278.98,608.28,278.7,604.75,281.02,605.24,281.17,602.15,284.81,603.01,286.5,601.06,292.73,600.01,294.21,603.74,303.04,605.53z"/>
		<path id="KZ" title="Kazakhstan" class="land" d="M548.82,621.56,547.54,620.78,548.32,619.4,548.82,621.56zM542.4,607.31,537.75,604.69,537.87,603.21,540.57,603.04,535.23,593.78,529.34,593.46,527.8,588.52,525.08,586.71,525.36,582.71,527.58,579.17,526.03,576.94,526.62,573.52,530.76,566.13,536.36,571.84,539.22,571.11,538.31,563.91,543.02,561.37,544.19,558.89,549.24,556.68,552.92,551.93,556.63,554.68,562.53,552.14,564.9,554.61,570.06,554.6,575.46,559.35,578.26,564.72,578.84,559.66,585.88,564.22,591.31,559.57,594.81,559.09,597.71,560.97,600.38,558.8,603.89,559.1,607.42,563.04,611.25,563.82,611.73,565.17,615.34,561.38,618.37,563.31,623.21,562.18,625.41,556.3,618.07,552.77,615.38,549.23,621.64,545.28,620.16,541.53,622,538.23,628.97,537.86,626.12,535.36,623.02,534.7,623.22,532.91,625.28,532.04,621.54,530.92,623.23,526.39,627.93,527.22,644.99,522.19,649.22,522.7,651.84,519.42,669.88,515.29,670.22,513.13,675.42,510.43,683.53,513.11,687.28,511.43,690.29,519.7,689.67,524.17,695.81,524.25,697.03,522.87,698.79,527.28,699.97,525.07,704.06,527.09,707,525.88,704.57,529.95,705.26,532.89,708.3,530.94,711.62,532.44,718.93,525.58,728.36,521.52,727.13,524.94,725.57,524.87,725.99,526.35,735.25,534.9,749.58,562.19,752.52,560.36,752.69,557.82,754.62,556.64,757.26,557.74,756.89,560.12,759.02,560.25,759.55,562.56,766.47,562.69,772.29,559.84,776.25,562.19,778.79,567.85,783.28,569.72,784.92,574.36,791.31,575.57,794.64,572.68,794.31,574.91,799,579.84,795.53,580.21,793.79,585.53,788.4,586.98,786.9,591.71,787.78,598.3,786.62,600.19,781.91,602.49,781.11,601.09,770.08,598.98,765.27,614.49,767.26,616.13,766.66,618.98,762.77,618.65,761.07,616.85,748.81,621.28,752.91,622.88,752.06,628.69,754.96,637.38,752.3,638.47,753.3,640.03,751.03,641.3,751.08,646.26,749.14,644.24,745.82,643.6,743.79,640.93,729.38,639.11,718.45,640.37,710.66,636.66,706.26,638.84,705.84,644.27,697.64,641.09,690.77,641.31,688.68,645.73,676.01,653.68,672.17,660.43,669.15,658.65,668.4,655.2,660.14,655.36,658.72,648.03,655.42,647.94,656.04,638.95,654.03,640,647.99,632.26,644.87,633.78,636.55,633.07,628.35,634.33,621.73,625.91,605.21,614.87,587.83,620.23,587.84,654.08,584.18,654.31,580.27,648.3,575.34,644.95,568.16,646.65,564.38,649.97,565.07,641.07,560.36,640.07,558.46,637.41,556.3,637.27,556.35,634.42,553.17,627.8,549.28,625.27,550.33,623.74,557.97,624.62,554.38,620.92,557.11,616.77,569.14,617.01,566.26,614.71,568.7,608.73,568.25,602.24,564.3,600.91,561.98,602.51,555.51,599.73,543.18,605.54,542.4,607.31z"/>
		<path id="AD" title="Andorra" class="land" d="M222.96,642.58,222.77,642.64,222.15,643.01,221.8,643.14,221.48,643.2,221.23,643.17,221.09,642.96,221.1,642.62,221.04,642.32,221,642.16,221.09,641.73,221.29,641.5,221.58,641.3,222.03,641.38,222.98,641.65,223.18,641.91,223.19,642.09,223.01,642.37,222.96,642.58z"/>
		<path id="MT" title="Malta" class="land" d="M307.78,698.76,307.38,698.89,306.98,698.64,306.88,698.49,307.44,698.36,307.72,698.47,307.83,698.69,307.78,698.76zM309.48,700.21,309.26,700.48,308.61,700.47,308.04,700.05,308.04,699.17,308.69,699.34,309.28,699.93,309.48,700.21z"/>
		<path id="MC" title="Monaco" class="land" d="M261.53,631.11,261.12,631.28,261.13,631.08,261.23,630.97,261.36,630.91,261.51,631,261.53,631.11z"/>
		<path id="SM" title="San Marino" class="land" d="M294.89,629.39,295.18,628.95,295.6,628.88,295.68,629.22,295.48,629.7,295.08,629.77,294.89,629.39z"/>
		<path id="GI" title="Gibraltar" class="land" d="M174.81,698.55,174.79,698.97,174.67,698.69,174.81,698.5521z"/>
		<path id="VA" title="Vatican City" class="land" d="M295.17,648.06,295.11,648.06,295.09,648.03,295.11,647.99,295.16,647.99,295.17,648.06z"/>
		
	</g>
</svg>
