<svg width="512" height="512" viewBox="0 0 135.467 135.467" xmlns="http://www.w3.org/2000/svg">
  <path d="M59.184 72.989H73.84V55.417a7.329 7.329 0 10-14.658 0z" fill="#918a6f" />
  <path
    d="M59.183 76.906h14.658a3.917 3.917 0 003.917-3.917V55.418c0-6.201-5.045-11.246-11.246-11.246-6.201 0-11.246 5.045-11.246 11.246v17.57a3.917 3.917 0 003.917 3.918zm10.74-7.835H63.1V55.418a3.415 3.415 0 013.412-3.412 3.415 3.415 0 013.411 3.412V69.07z"
    fill="#0290ff" />
  <path d="M44.526 72.989h14.658V46.622a7.329 7.329 0 10-14.658 0z" fill="#918a6f" />
  <g fill="#0290ff">
    <path
      d="M44.526 76.906h14.657a3.917 3.917 0 003.918-3.917V46.622c0-6.2-5.045-11.246-11.246-11.246-6.201 0-11.246 5.045-11.246 11.246V72.99a3.917 3.917 0 003.917 3.917zm10.74-7.835h-6.823V46.622a3.415 3.415 0 013.412-3.411 3.415 3.415 0 013.411 3.411z" />
    <path
      d="M29.868 76.906h14.658a3.917 3.917 0 003.917-3.917V37.826c0-6.2-5.045-11.245-11.246-11.245-6.201 0-11.246 5.044-11.246 11.245v17.638a3.917 3.917 0 107.835 0V37.826a3.415 3.415 0 013.41-3.41 3.415 3.415 0 013.412 3.41v31.245h-10.74a3.917 3.917 0 100 7.835z" />
    <path
      d="M51.855 103.486c28.531 0 51.743-23.212 51.743-51.743C103.598 23.213 80.386 0 51.855 0 23.324 0 .11 23.212.11 51.743c0 7.703 1.654 15.115 4.914 22.033a3.917 3.917 0 107.087-3.34c-2.764-5.865-4.166-12.154-4.166-18.693 0-24.211 19.698-43.908 43.91-43.908 24.21 0 43.907 19.697 43.907 43.908 0 24.212-19.697 43.909-43.908 43.909-9.087 0-17.804-2.75-25.21-7.953a3.918 3.918 0 00-4.503 6.41c8.732 6.135 19.006 9.377 29.713 9.377z" />
    <path
      d="M97.687 101.492a3.918 3.918 0 002.77-6.688L88.612 82.962a3.918 3.918 0 00-5.54 5.54l11.843 11.844a3.907 3.907 0 002.77 1.147z" />
  </g>
  <path
    d="M117.054 131.326l14.384-14.383-21.166-21.166c-3.972-3.972-10.411-3.972-14.383 0-3.972 3.972-3.972 10.411 0 14.383z"
    fill="#918a6f" />
  <path
    d="M117.054 135.244a3.906 3.906 0 002.77-1.148l14.384-14.383a3.918 3.918 0 000-5.54l-21.166-21.166a13.997 13.997 0 00-9.962-4.126c-3.762 0-7.3 1.465-9.961 4.126-5.492 5.493-5.492 14.43 0 19.923l21.166 21.166a3.905 3.905 0 002.77 1.148zm8.844-18.301l-8.844 8.844-18.396-18.396a6.26 6.26 0 010-8.844 6.212 6.212 0 014.422-1.831c1.67 0 3.241.65 4.422 1.831z"
    fill="gray" />
</svg>